<?xml version="1.0" encoding="UTF-8"?>
<svg id="Layer_1" xmlns="http://www.w3.org/2000/svg" viewBox="0 0 400 400">
  <defs>
    <style>
      .cls-1 {
        fill: #73d3e0;
      }

      .cls-2 {
        fill: #55c2a8;
      }

      .cls-3 {
        fill: #fefdfd;
      }

      .cls-4 {
        fill: #d80033;
      }

      .cls-5 {
        fill: #010101;
      }

      .cls-6 {
        fill: #9fe3fb;
      }

      .cls-7 {
        fill: #eaeaea;
      }

      .cls-8 {
        fill: #73d3e1;
      }

      .cls-9 {
        fill: #38ad70;
      }

      .cls-10 {
        fill: #c3002c;
      }

      .cls-11 {
        fill: #4ebb92;
      }

      .cls-12 {
        fill: #1d1d58;
      }

      .cls-13 {
        fill: #beebfb;
      }

      .cls-14 {
        fill: #e2e2e2;
      }

      .cls-15 {
        fill: #33a962;
      }

      .cls-16 {
        fill: #d80000;
      }

      .cls-17 {
        fill: #4bbb93;
      }

      .cls-18 {
        fill: #82dbfd;
      }

      .cls-19 {
        fill: #48b889;
      }

      .cls-20 {
        fill: #81dbfd;
      }

      .cls-21 {
        fill: #0e8f1b;
      }

      .cls-22 {
        fill: #239e43;
      }

      .cls-23 {
        fill: #209d3d;
      }

      .cls-24 {
        fill: #5fc8bb;
      }

      .cls-25 {
        fill: #e7e7e7;
      }

      .cls-26 {
        fill: #a0e0fa;
      }

      .cls-27 {
        fill: #666;
      }

      .cls-28 {
        fill: #9dacb2;
      }

      .cls-29 {
        fill: #a0e3fc;
      }

      .cls-30 {
        fill: green;
      }

      .cls-31 {
        fill: #199831;
      }

      .cls-32 {
        fill: #ba012a;
      }

      .cls-33 {
        fill: #333398;
      }

      .cls-34 {
        fill: #a1e4fb;
      }

      .cls-35 {
        fill: #82dafc;
      }

      .cls-36 {
        fill: #fefefe;
      }

      .cls-37 {
        fill: #a30125;
      }

      .cls-38 {
        fill: #0e8e1d;
      }

      .cls-39 {
        fill: #4dbc91;
      }

      .cls-40 {
        fill: #a40125;
      }

      .cls-41 {
        fill: #51c09c;
      }

      .cls-42 {
        fill: #2ea55b;
      }

      .cls-43 {
        fill: #2aa652;
      }

      .cls-44 {
        fill: #0b8c14;
      }

      .cls-45 {
        fill: #62c9bd;
      }

      .cls-46 {
        fill: #989898;
      }

      .cls-47 {
        fill: #ededed;
      }

      .cls-48 {
        fill: #36ac68;
      }

      .cls-49 {
        fill: #9ee3fc;
      }

      .cls-50 {
        fill: #24a247;
      }

      .cls-51 {
        fill: #252570;
      }

      .cls-52 {
        fill: #fdfdfd;
      }
    </style>
  </defs>
  <path class="cls-20" d="M.07,73.03C.07,49.71.11,26.38,0,3.06,0,.56.57,0,3.07,0,134.35.07,265.63.07,396.92,0c2.5,0,3.14.55,3.07,3.06-.2,6.66-.07,13.33-.07,19.99-1.11,1.33-2.57,2.03-4.23,2.44-15.16,3.67-29.6,9.7-44.85,13.21-9.32,2.15-17.58,7.8-27.15,9.61-1.57.3-2.41,1.69-3.47,2.72-2.58.43-2.38-1.82-2.91-3.17-3.66-9.48-9.23-13.12-19.21-13.55-16.25-.7-30.45,5.68-44.79,11.97-7.55,3.31-13.68,8.79-20.82,12.68-1.25.47-2.5.93-3.86.96-6.94-1.84-13.34-5.09-19.99-7.68-16.77-6.52-33.97-7.45-51.49-4.31-18.88,3.38-34.71,13.08-49.68,24.46-1.58,1.2-2.96,2.71-4.93,3.33-6.07-.25-9.36-5.24-13.71-8.33-2.15-1.53-.32-3.15,1.39-4.16,5.18-3.04,10.82-5.14,16.26-7.61,10.3-4.66,20.41-9.75,30.77-14.28,4.01-1.75,4.57-3.1,2.14-5.74-8.93-9.7-18.69-18-32.62-19.48-6.33-.67-6.92-.51-9.94,5.46-5.86,11.57-11.29,23.35-17.21,34.89-1.54,3.01-3.63,4.87-6.69,6.25-14.41,6.48-28.97,12.61-43.27,19.32-2.66,1.25-5.29,2.91-8.47,2.56-6.8-4.3-14.71-6.56-21.13-11.57Z"/>
  <path class="cls-20" d="M399.92,95.02v175.93c-3.62.59-6.88-.89-9.94-2.3-5.7-2.62-11.05-5.96-16.58-8.92-2.14-1.14-2.75-3.18-2.77-5.46,1.69-9.71,5.78-18.72,8.25-28.21,1.83-7.02,1.71-7.35-5.68-6.43-18.31,2.28-36.77,2.78-55.11,4.77-14.54,1.58-29.16,2.18-43.7,3.77-1.49.16-2.98.2-4.48.15-3.42-.1-5.39-1.76-5.22-5.25.67-13.91,3.12-27.41,9.68-39.9.94-1.79,2.22-3.32,4.2-4.09,4.61-1.19,9.37-1.34,14.05-2.02,11.4-2.42,23.03-2.63,34.59-3.39,6.13-.4,6.31-.57,3.57-6.26-3.68-7.65-7.69-15.08-12.67-21.98-1.07-1.49-2.06-3.04-1.96-5,.91-3.37,3.87-4.39,6.6-5.48,3.31-1.32,6.22-3.11,8.65-5.71,1.02-1.09,2.05-2.31,3.43-2.86,11.81-4.72,20.82-14.11,32.5-19.16,7.74-3.35,15.23-7.38,22.74-11.31,2.99-1.56,6.33-3.25,9.84-.91Z"/>
  <path class="cls-4" d="M369.93,399.9h-48.98c-5.48-6.72-9.72-14.27-14.14-21.67-5.97-9.99-12.52-19.63-18.15-29.83-.32-.57-.74-1.1-1.87-1.37-4.73,7.58-8.56,15.82-12.65,23.9-4.28,8.44-8.53,16.9-12.93,25.28-.79,1.51-1.72,2.84-3.23,3.69h-104.96c-1.53-1.77-1.03-3.77-.49-5.68,4.21-14.67,7.15-29.67,11.32-44.36.59-2.07,1.12-4.18,2.62-5.86,6.75-2.61,13.99-2.61,21.01-3.38,28.45-3.16,56.87-6.55,85.34-9.59,20.36-2.17,40.63-5.11,61.06-6.63,3-.22,5.96-.74,8.9-1.3,4.02-.76,6.22.71,7.41,4.64,4.34,14.34,8.55,28.73,12.95,43.06,2.4,7.79,4.7,15.62,7.09,23.42.6,1.95,1.22,3.85-.28,5.67Z"/>
  <path class="cls-30" d="M86.04,399.9c-27.43,0-54.86-.07-82.29.09-3.27.02-3.76-.92-3.75-3.89.1-45.71.07-91.43.07-137.14,2.22-1.44,3.85.09,5.32,1.3,8.14,6.7,15.38,14.23,19.99,23.86,1.51,3.15,3.95,5.78,4.97,9.19,4.64,6.47,10.32,10.33,18.88,9.05,8.38-1.25,16.88-1.59,25.25-3.01,1.31-.22,2.66-.37,3.89.4,1.57,1.46,1.93,3.45,2.27,5.41,2.55,14.88,6.25,29.53,8.64,44.45-1.5,14.69.25,29.51-1.65,44.19-.27,2.13,0,4.34-1.59,6.11Z"/>
  <path class="cls-13" d="M.07,207.98v-121.95c1.16-1.05,2.5-.96,3.65-.22,3.64,2.32,7.89,3.24,11.68,5.2,4.47,5.11,7.55,11.23,12.68,15.94,7.75,7.11,17.14,10.71,26.73,14.09,2.91,1.03,4.11-.96,5.43-3.08,2.08-3.34,2.27-7.79,5.92-10.22,5.41-1.32,6.94-.71,8.88,3.51-1.62,7.51-5.43,14.26-7.34,21.71-2.82,11.01-4.42,22.13-5.35,33.46-.88,10.68.72,21.26.14,31.89.02,2.81-.16,5.61.38,8.42,1.58,8.29-.06,10.27-8.64,9.69-14.87-1-29.78-1.82-44.34-5.37-3.34-.81-7.02-.49-9.82-3.05Z"/>
  <path class="cls-13" d="M399.92,35.05v47.98c-2.11,2.17-5.13,2.23-7.72,3.25-9.45,3.71-17.96,9.33-27.2,13.41-16.2,7.15-29.55,18.88-44.89,27.38-3.14,1.74-4.95,5.57-9.08,5.71-1.42-.24-2.4-1.14-3.14-2.27-3.2-4.86-7.11-9.17-10.66-13.76-1.33-1.72-2.64-3.46-2.14-5.86,2.82-6.97,7.71-12.78,10.93-19.57,4.07-8.58,8.07-17.15,11.09-26.16.61-1.2,1.18-2.45,1.34-3.75.35-2.92,1.99-4.19,4.74-4.96,22.61-6.31,44.39-15.29,67.2-21,3.13-.78,6.25-2.77,9.52-.4Z"/>
  <path class="cls-30" d="M399.92,300.94c0,31.82-.05,63.64.08,95.46.01,2.98-.58,3.73-3.59,3.59-6.15-.29-12.32-.09-18.49-.09-4.39-5.38-4.85-12.3-6.8-18.54-6.23-19.96-12.44-39.93-18.6-59.91-.44-1.43-.82-2.87-.85-4.39,2.59-11.04,5.78-21.91,9.94-32.47,1.54-2.97,3.61-3.07,6.57-1.82,6.6,2.78,13.2,5.45,19.01,9.78,4.07,3.03,9.81,3.56,12.71,8.39Z"/>
  <path class="cls-10" d="M167,344.91c-4.81,13.71-7.26,28.04-10.97,42.03-1.14,4.28-3.08,8.39-3.02,12.95h-56.98c-1.33-1.47-1.44-3.29-1.53-5.14-.59-12.32.59-24.58,1.26-36.85.35-6.44,2.08-8.07,8.62-8.66,18.53-1.69,37.02-3.82,55.53-5.73,2.42-.25,5.03-.58,7.09,1.39Z"/>
  <path class="cls-40" d="M167,344.91c-12.75.13-25.29,2.27-37.9,3.76-8.85,1.04-17.76,1.64-26.66,2.19-2.79.17-4.06,1.01-4.64,3.9-1.47,7.35-.75,14.82-1.58,22.23-.85,7.55-.19,15.27-.2,22.91h-10c.68-17.05,1.36-34.1,2.05-51.15,1.75-2.3,4.32-2.11,6.78-2.25,2.46-.14,4.97.32,7.35-.7,15.97-2.91,32.18-4.06,48.24-6.34,7.19-1.02,14.49-1.22,21.64-2.61,33.45-4.23,66.93-8.26,100.39-12.42,22.91-2.85,45.83-5.7,68.74-8.58,3.79.4,7.78-2.13,11.41.73,7.16,23.32,14.33,46.64,21.47,69.97,1.35,4.43,2.56,8.9,3.83,13.36h-8c-.59-5.98-3.1-11.45-4.72-17.14-5.24-18.46-11-36.76-16.5-55.15-.84-2.8-1.85-3.71-5.26-3.19-10.44,1.58-21,2.35-31.5,3.54-9.68,1.09-19.34,2.34-29.01,3.48-10.17,1.19-20.34,2.34-30.51,3.49-10.01,1.13-20.02,2.25-30.03,3.36-8.2.9-16.42,1.68-24.62,2.67-10.27,1.24-20.52,2.64-30.78,3.97Z"/>
  <path class="cls-18" d="M.07,231.97v-12.99c1.22-1.07,2.72-1.46,4.2-1.04,5.64,1.59,11.53,1.4,17.24,2.57,11.09,2.26,22.35,3.25,33.64,3.98,3,.19,5.98-.16,8.91-.84,1.62.29,1.97,1.61,2.23,2.91,2.89,14.75,5.11,29.63,7.86,44.41.21,1.15.09,2.31-.36,3.41-.08.14-.15.39-.26.4-8.29,1.38-16.44,4.94-25.04,1.65-1.25-.48-2.65-.92-3.2-2.21-2.67-6.34-8.51-10.66-10.87-17.19-.64-1.78-1.97-3.05-3.64-3.94-2.08-1.12-3.87-2.64-5.34-4.43-5.57-6.78-12.97-10.7-21-13.67-1.73-.64-3.46-1.22-4.38-3.02Z"/>
  <path class="cls-49" d="M310.94,132.01c7.62-5.12,15.11-10.47,22.9-15.32,12.54-7.8,24.56-16.49,38.46-22.01,6.25-2.48,11.65-6.82,18.15-9.02,3.13-1.06,6.18-2.24,9.47-2.63v12c-4.06-.1-7.66,1.13-11.29,3.02-9.37,4.89-19.1,9.12-28.4,14.14-5.18,2.79-9.53,7.12-14.72,9.89-10,5.35-18.7,12.69-28.63,18.1-4.19-1.11-5.84-4.07-5.94-8.16Z"/>
  <path class="cls-3" d="M312.95,399.9h-44.98c-1.43-2.02-.25-3.89.54-5.62,4.96-10.89,9.59-21.93,14.67-32.76,2.3-4.91,4.61-5.13,7.6-.42,7.3,11.51,14.34,23.18,21.6,34.72.77,1.22,1.79,2.53.58,4.09Z"/>
  <path class="cls-6" d="M399.92,35.05c-7.66-.1-14.32,3.81-21.57,5.42-14.92,3.32-28.93,9.54-43.47,14.1-1.42.45-2.81,1.14-4.27,1.34-6.22.88-11.53,2.77-12.48,10.11-2.36-5.2-.27-9.9,1.62-14.63.04-2.5.47-4.05,3.72-4.57,7.69-1.23,14.58-5.09,21.87-7.65,11.2-3.93,22.86-6.51,34.14-10.25,6.75-2.24,13.52-4.28,20.44-5.86v12Z"/>
  <path class="cls-37" d="M312.95,399.9c-7.99-14.51-17.3-28.2-26.43-43.15-6.31,15.06-13.32,28.71-18.56,43.15h-10c9.45-18.47,18.89-36.95,28.37-55.5,3.86,1.99,4.57,5.9,6.47,8.9,8.99,14.26,17.85,28.6,26.71,42.94.68,1.09.96,2.43,1.43,3.65h-8Z"/>
  <path class="cls-29" d="M64.09,223.9c-.25,2.05-1.76,2.02-3.31,2.09-7.29.32-14.49-.46-21.69-1.49-13-1.87-26.01-3.68-39.02-5.52,0-3.67,0-7.33,0-11,6.84,1.11,13.75,1.9,20.5,3.42,7.64,1.72,15.34,2.28,23.11,2.61,4.62.19,9.25.5,13.85,1.01,4.05.45,5.02-1.55,4.48-4.98-.65-4.09-1.49-8.17-.76-12.34,2,.62,2.02,2.42,2.25,4,.86,5.68,1.77,11.36,1.98,17.12-.02,1.81.06,3.66-1.39,5.08Z"/>
  <path class="cls-1" d="M.07,231.97c10.99,3.59,20.12,9.63,28.74,17.62,7.32,6.79,11.03,15.53,16.96,22.94,2.93,3.66,7.13,5.26,11.12,4.06,5.41-1.62,10.75-1.57,16.18-1.64,2.84.81,2.05,2.81,1.56,4.71-3.1,2.43-6.63,3.75-10.56,3.56-4.17-.2-8.26.72-12.43.49-6.37-.35-10.69-3.96-13.22-9.25-4.45-9.31-10.64-17.12-18.49-23.66-5.22-4.35-11.67-6.89-16.92-11.25-1.01-.84-2.26-1.37-2.93-2.59v-5Z"/>
  <path class="cls-38" d="M29.06,292.94c-4.89-8.02-8.48-17.03-15.48-23.47-4.15-3.82-7.46-9.03-13.51-10.51v-7c.7-.64,1.58-.77,2.28-.26,9.35,6.77,19.29,12.99,23.87,24.4.94,2.34,3.5,3.63,3.86,6.29-.6,4.49,3.24,6.28,5.52,9.03.34.38.62.79.89,1.23,4.02,4.08,9.14,3.82,14.19,3.45,4.9-.35,9.72-1.63,14.67-1.54,1.95.04,3.98-.2,5.67,1.16.4,1-.15,1.75-.94,1.93-8.17,1.86-16.16,5.02-24.77,4.04-6.55-.74-11.66-4.3-16.24-8.77Z"/>
  <path class="cls-24" d="M.07,236.96c10.66,5.93,21.05,11.98,29.46,21.31,5.31,5.88,7.64,13.29,12.54,19.2,3.54,4.27,8.11,5.35,13.49,4.87,6.2-.56,12.48-.42,18.49-2.4,1.5.85,2.03,1.93.83,3.43-2.12,1.29-4.5.92-6.8.96-2.35.03-4.55.39-6.76,1.35-10.07,4.38-18.9,1.36-24.28-8.19-.58-1.03-1.5-1.77-2.18-2.7-3.34-5.16-7.55-9.65-11.26-14.53-3.27-4.3-7.21-7.89-11.53-11.08-2.71-2.45-5.16-5.38-9.37-5.03-1.02-.1-1.9-.49-2.63-1.2v-6Z"/>
  <path class="cls-34" d="M15.32,91.93c-5.44-1.06-9.93-4.54-15.25-5.9v-12.99c7.3,3.1,14.92,5.59,20.99,11.02-1.27,3.1-6.08,3.61-5.74,7.88Z"/>
  <path class="cls-21" d="M399.92,300.94c-4.3-2.32-8.86-4.26-12.84-7.03-6.33-4.39-13.27-7.34-20.27-10.36-2.61-1.13-2.9.37-4.06,1.32-1.6-2.92-.7-5.28,1.62-7.33,5.67-1.28,10.4,1.97,14.92,4.13,6.49,3.1,12.72,6.98,18.79,10.97.86.56,1.25,1.52,1.85,2.3v6Z"/>
  <path class="cls-19" d="M13.05,247.99c.51.84.9,2.27,1.56,2.41,6.97,1.5,9.66,8.23,13,12.78,2.42,3.3,8.19,5.16,7.46,10.75,2.68,4.2,4.33,9.17,9.31,11.6,1.21.59,2.43,1.84,1.68,3.65-3.09,1.66-5.38.26-7.15-2.13-1.18-1.58-2.53-2.96-3.93-4.31-1.52-2.71-2.84-5.59-5.77-7.18-.36-.3-.64-.66-.85-1.09-.36-.87-.49-1.8-.63-2.72-4.86-8.11-10.31-15.54-19.19-19.87-2.9-1.41-5.59-3.39-8.47-4.94v-4c.99,0,1.99.01,2.98.02,3.21,1.91,6.14,4.38,10,5Z"/>
  <path class="cls-22" d="M29.05,282.95c-4.41-8.53-9.33-16.96-16.87-22.83-3.73-2.9-7.57-6.22-12.11-8.16v-4c11.31,3.85,19.89,10.99,25.79,21.37.41,2.25,1.53,4.09,3.21,5.61h0c1.44,3.31,3.39,6.24,6.25,8.5.27.38.47.78.62,1.22.61,3.13,2.48,5.16,5.46,6.22.47.14.91.3,1.36.48,1.89,1.22,5.3,1.26,3.94,5.02-4.94,1.31-8.38-1.34-11.65-4.44h0c-1.74-3.17-4.64-5.57-6.01-8.99Z"/>
  <path class="cls-8" d="M371.89,254.91c-.11,2.28,1.04,3.21,3.11,4.31,8.12,4.33,16.06,8.98,24.92,11.72v7c-3.6,1.94-6.28-1.14-8.41-2.57-5.85-3.94-12.32-6.27-18.66-9.01-2.09-.9-3.79-2.04-4.08-4.53.25-2.66-.47-5.77,3.13-6.92Z"/>
  <path class="cls-45" d="M369.88,261.95c2.04,4.15,6.42,4.55,10.05,5.82,2.19.77,4.24,1.43,6.2,2.78,4.31,2.96,8.89,5.48,13.79,7.4v4c-4.59,1.47-7.5-2.14-10.97-3.81-3.95-1.89-7.37-4.88-11.92-5.48-2.65-2.65-6.81-2.28-9.53-4.78-.67-2.57-.74-4.89,2.39-5.93Z"/>
  <path class="cls-48" d="M399.92,285.94v6c-1.26,1.05-2.45.89-3.49-.3-5.58-6.34-13.41-8.85-20.75-12.19-2.13-4.32-7.27-2.07-10.2-4.67-.48-1.14-.4-2.2.4-3.18,2.7-1.54,5.51-1.24,8.35-.5,2.22,2.95,6,2.94,8.97,4.51,4.15,2.19,7.76,5.42,12.41,6.65,1.53,1.11,2.87,2.46,4.31,3.68Z"/>
  <path class="cls-23" d="M375.96,278.92c5.29,1.77,10.66,3.14,15.3,6.65,2.84,2.15,5.13,5.13,8.65,6.36v3c-6.39-3.92-13-7.49-19.42-11.36-4.68-2.82-10.23-4.66-15.8-5.75-.39-.79-.31-1.51.3-2.17,4-.09,7.7.85,10.96,3.26Z"/>
  <path class="cls-15" d="M25.07,269.95c-5.43-8.19-11.37-15.87-21.33-18.89-1.84-.56-2.38-2.16-3.67-3.1v-1c6.6.08,11.02,4.51,15.7,8.16,5.76,4.48,10.24,10.12,13.27,16.84-2.41,1.48-2.94-.76-3.97-2Z"/>
  <path class="cls-17" d="M395.88,282.96c-5.17,1.44-7.29-4.15-11.62-5.09-2.63-.58-4.65-3.39-7.96-3.17-1.46.1-1.29-1.61-1.45-2.72.69-.68,1.4-.59,2.13-.06,5.06-.79,8.42,2.73,12.28,4.9,3.45,1.94,6.88,3.89,10.66,5.12v1c-1.34,1.07-2.69,1.06-4.04.02Z"/>
  <path class="cls-39" d="M395.88,282.96c1.35,0,2.69-.01,4.04-.02v3c-2.18.14-3.84-.44-4.04-2.98Z"/>
  <path class="cls-12" d="M64.21,218.78c-.99-7.03-1.97-14.06-2.96-21.09.07-10.74-1.07-21.45-.36-32.23,1.26-18.89,5.39-36.98,13.26-54.2.48-4.13,3.15-7.21,5.06-10.66,3.6-5.37,7.37-10.62,11.82-15.33,3.52-3.47,6.28-7.76,10.86-10.1,12.64-10.11,25.69-19.63,41.26-24.78,22.52-7.45,45.01-7.68,67.3,1.19,6.28,2.5,12.58,4.97,18.86,7.45.74,4.51-3.61,5.25-5.68,7.68-15.5,11.98-31.51,23.28-46.65,35.74-13.59,11.18-26.81,22.77-39.78,34.65-2.45,2.25-5.18,4.17-7.52,6.52-17.54,16.12-33.51,33.73-48.88,51.88-2.81,3.32-4.29,7.52-6.95,10.95-2.46,3.45-5.36,6.6-7.13,10.54-.43.95-.96,2.19-2.51,1.78Z"/>
  <path class="cls-46" d="M101.89,75.17c-3.26,3.51-6.51,7.03-9.77,10.54-3.97-3.99-4.61-9.82-8.18-14.66-4.34,9.15-8.16,18.25-12.13,27.28-2.23,3.41-2.6,7.87-6.04,10.58-1.76,3.74-3.67,7.41-5.23,11.23-1.15,2.81-2.78,3.1-5.49,2.3-17.16-5.11-31.55-13.75-39.73-30.51-2.95-6.17,3.44-5.53,5.75-7.88,17.93-7.84,35.85-15.7,53.79-23.51,1.7-.74,2.37-2.15,3.12-3.66,6.58-13.2,13.26-26.35,19.76-39.59,1.21-2.46,2.66-3.4,5.41-3.17,15.56,1.32,27.43,9.23,37.32,20.67,3.7,4.28,3.44,4.95-1.81,7.37-16.11,7.42-32.22,14.85-48.33,22.28-.57.27-1.08.67-2.18,1.37,4.93,3.06,8.79,6.96,13.73,9.36Z"/>
  <path class="cls-46" d="M222.88,65.86c1.83-2.57,5.74-3.18,6.43-6.83.77-.61,1.59-1.1,2.64-.96,2.38,2.79,5.65,4.31,8.78,6.01,12.37,5.99,22.28,15.27,32.59,24.06,4.91,4.19,9.64,8.54,14.16,13.14,3.07,3.09,5.66,6.61,8.51,9.89.4,4.1,3.7,6.37,5.92,9.3,2.95,3.89,6.02,7.7,9.04,11.54,1.65,2.96,3.21,5.98,5.94,8.16,3.24,7.09,8.68,12.87,11.83,20.03,1.66,3.77,3.63,7.41,5.44,11.11,1.12,2.29.98,3.8-2.16,3.79-13.08-.04-26.05,1.37-39.01,2.92-1.71.27-1.47-.86-1.37-1.9,2.46-2.08,5.55-2.07,8.46-2.27,3.16-.22,6.27-.73,9.38-1.24,4.75-.77,5.05-1.21,3.26-5.84-5.74-14.84-14.39-28.03-23.7-40.79-9.01-12.34-18.21-24.52-29.39-35.09-10.46-9.89-21.62-18.65-35.24-23.83-.64-.24-1.17-.61-1.51-1.22Z"/>
  <path class="cls-32" d="M239.98,64.76c-2.45-1.32-4.87-2.68-7.34-3.94-1.38-.7-1.39-1.61-.69-2.76,14.48-10.89,30.61-18.35,48-23.27,6.97-1.97,14.08-2.37,21.21-1.8,9.76.78,15.8,6.94,18.59,18.39-.54,4.88-1.08,9.75-1.62,14.63-5.27,16.09-13.3,30.82-22.15,45.16-4.44-1.61-5.9-6.16-8.98-9.1,7.56-8.95,13.24-19.06,18-29.69,2.89-6.44,4.56-13.21,2.84-20.34-1.64-6.79-6.11-10.49-13.17-10.65-7.27-.17-14.11,1.97-20.76,4.64-12.06,4.86-23.17,11.49-33.93,18.72Z"/>
  <path class="cls-46" d="M365,275.95c-.1.62-.2,1.25-.31,1.87-1.28,2.17-1.71,4.58-1.96,7.04-3.37,10.57-6.74,21.14-10.11,31.71-3.63.09-7.26.17-10.89.26-1.13-4.73,1.33-8.78,2.74-12.91,8.18-23.94,16.4-47.86,24.49-71.82,2.16-6.41,1.63-7.21-5.31-6.54-14.9,1.44-29.79,2.99-44.71,4.22-21.05,1.74-42.04,4.03-63.09,5.75-15.25,1.25-30.48,2.83-45.7,4.43-7.27.76-8.9-.28-8.57-7.61.61-13.61,1.21-27.24,2.91-40.79.55-4.39,3.09-5.87,6.96-6.34,17.34-2.07,34.61-4.74,51.97-6.66,3.14-.35,6.23-1.14,9.42-1.05,2.12.53,5-.84,6.05,2.4-5.49,4.35-6.37,11.12-8.58,17.06-3.08,8.28-3.47,17.17-4.33,25.91-.33,3.36.94,4.44,4.23,4.15,17.51-1.57,35.02-3.02,52.53-4.52,9.74-.84,19.49-1.71,29.23-2.53,8.92-.75,17.88-1.19,26.76-2.3,4.23-.53,4.03.5,2.97,3.87-3.47,11.06-6.58,22.23-9.84,33.35-1.52,2.1-2.03,4.49-2.01,7.04-1.47,1.73-1.78,3.84-1.97,5.99.35,1.77-.47,3.02-1.77,4.06-.14.93-.28,1.87-.42,2.8-.05.5-.28.9-.72,1.15Z"/>
  <path class="cls-28" d="M278.91,179.92c-1.79-1.74-4.08-.48-6.07-1.02.06-1.22.94-1.73,1.91-1.95,4.68-1.03,9.43-1.68,14.2-2.06,1.16-.09,2.31.22,3.03,1.32,0,.78.26,1.43.99,1.82-4.6,1.28-9.35,1.5-14.07,1.9Z"/>
  <path class="cls-46" d="M64.21,218.78c3.01-4.23,4.83-9.26,8.79-12.84,2.08,2.26,2.09,5.19,2.35,7.95,2.97,30.64,8.35,60.88,14.87,90.93,2.58,11.86,5.37,23.66,8.99,35.25.75,2.39,2.01,4.55,2.72,6.94-4.62.58-9.24,1.16-13.86,1.73-2.86-14.02-5.72-28.03-8.59-42.04-.46-2.26-1.02-4.5-1.53-6.75-1.01-1.09-1.55-2.4-1.85-3.84-.2-.92-.26-1.86-.35-2.8-.07-1.17-.45-2.27-.69-3.41-.15-.69-.23-1.4-.29-2.1.05-1.62-.95-3.27.12-4.87-.28-1-.56-1.99-.84-2.99-.17-1.7.53-3.57-.98-5-2.29-13.66-4.44-27.34-6.95-40.96-.62-3.36-.38-6.93-2.03-10.09.04-1.71.08-3.41.12-5.12Z"/>
  <path class="cls-44" d="M77.06,295.94c.79,1.23,1.23,2.54.9,4.02-7.47,1.16-14.84,3.06-22.48,3-1.98-.02-3.91.13-5.89.58-7.8,1.79-15.76-1.5-20.16-8.18-.41-.62-.26-1.6-.36-2.41,3.23.47,5.76,2.7,8.12,4.4,6.38,4.61,13.27,3.81,19.74,2.17,4.68-1.19,9.74-1.19,14.13-3.57,2-1.74,4.01-1.48,6.02,0Z"/>
  <path class="cls-26" d="M65.77,108.92c1.8-3.61,2.61-7.67,5.11-10.95,5.03-1.38,7.34-.61,9.13,3.02-1.95,3.42-3.91,6.85-5.86,10.27-1.87-4.08-5.08-3.37-8.38-2.34Z"/>
  <path class="cls-36" d="M291.99,176.2c-6.47.26-12.84,1.21-19.14,2.69-14.5,1.83-29,3.66-43.49,5.51-6.43.82-12.83,1.82-19.27,2.53-2.56.28-3.76,1.12-4.08,3.87-1.72,14.54-2.21,29.15-3.08,43.74-.22,3.72,1.01,4.6,4.5,4.25,29.26-2.92,58.52-5.8,87.8-8.53,24.32-2.27,48.67-4.26,73-6.5,4.33-.4,5.11.77,3.69,4.88-10.16,29.35-20.13,58.77-30.16,88.17-7.14,2.29-14.63,2.28-21.95,3.21-41.72,5.33-83.47,10.42-125.21,15.56-7.42.91-14.86,1.64-22.3,2.45-3.53.89-7.22-.07-10.8,1.24-2.59.95-3.71-1.41-4.64-3.45-3.25-7.12-6.4-14.37-8.19-21.94-4.84-20.55-10.47-40.91-14.44-61.66-4.22-22.08-5.99-44.41-7.77-66.77-.94-11.8-1.68-23.54.36-35.28.43-2.45.72-4.96,2.25-7.06,12.02-11.96,24.99-22.88,37.86-33.89,17.95-15.35,36.93-29.39,55.95-43.37,7.86,1.1,14.06,5.71,20.33,9.96,14.33,9.7,25.97,22.25,36.54,35.8,9.91,12.7,19.53,25.62,27.14,39.89,3.05,5.71,5.87,11.51,8.13,17.6.99,2.66.92,3.88-2.32,4.24-6.93.77-13.81,1.88-20.72,2.85Z"/>
  <path class="cls-7" d="M129.06,143.12c.15,6.49-2.12,12.68-2.13,19.21-.04,19.58,2.34,38.98,4.15,58.41,1.77,18.92,5.62,37.55,9.94,56.06,2.74,11.74,5.43,23.49,8.58,35.12,2.28,8.45,5.54,16.6,9.09,24.62.85,1.93,1.82,2.7,3.72,2.05,3.26-1.12,6.56-.74,9.88-.54-14.6,1.89-29.2,3.79-43.8,5.66-8.84,1.13-17.69,2.21-26.53,3.31-2.45-.39-2.91-2.35-3.49-4.29-8.38-27.68-13.8-56.01-18.62-84.48-2.94-17.36-4.99-34.81-6.83-52.3,5.65-11.52,15.14-20.04,23.14-29.73,9.96-12.06,21.33-22.68,32.93-33.09Z"/>
  <path class="cls-31" d="M77.06,295.94c-2.01,0-4.01,0-6.02,0-7.08-.26-14.06.48-21,1.81-6.3,1.2-13.45-1.63-14.98-5.81,1.13.02,2.53-.18,3.14.84,2.13,3.56,5.48,3.31,8.85,3.16,7.74-3.38,15.78-5.38,24.26-5.41,2.15,0,4.39.02,5.54,2.41.07,1,.13,2,.2,3Z"/>
  <path class="cls-31" d="M29.05,282.95c2.81,2.46,5.58,4.94,6.01,8.99-2.78-2.48-6.99-4-6.01-8.99Z"/>
  <path class="cls-41" d="M74.89,282.93c.31,1.65,1.41,3.15.97,4.94-5.95-.68-11.46,2.15-17.34,2.16-4.19,0-8.5,1.48-12.46-1.1-2.99-3.52-7.05-5.97-9.54-10.09-1.01-1.68-1.45-3.12-1.45-4.9,1.14.65,2.36,1.13,3.13,2.36,6.68,10.74,11.61,12.02,24.3,7.16,3.89-1.49,8.25-.28,12.4-.52Z"/>
  <path class="cls-2" d="M13.05,247.99c-4.29.24-7.96-.75-10-5.01,4.61-.88,6.79,3.09,10,5.01Z"/>
  <path class="cls-9" d="M46.06,288.93c6.77.69,13.43-1.03,20.17-.98,1.68.01,2.62-1.27,3.97-1.7,2.17-.7,4.23-.48,5.67,1.63.06.68.13,1.36.19,2.05-7.89.26-15.47,2.62-23.27,3.44-3.68.39-7.23-.34-10.73-1.41-.33-.02-.66-.02-.99-.02-2.39-2-4.41-4.31-6.01-6.98,0-.33,0-.67,0-1-.55-.69-.63-1.36.03-2.03,1.57.87,3.38,1.42,4.12,3.35,1.22,3.16,3.79,3.9,6.85,3.66Z"/>
  <path class="cls-42" d="M35.08,281.92c-.01.68-.02,1.35-.03,2.03-3.58-1.95-6.84-4.12-5.98-9.02,3.91.69,5.57,3.31,6.01,6.99Z"/>
  <path class="cls-42" d="M25.07,269.95c1.37.57,2.24,2.13,3.97,2,.01.99.02,1.99.03,2.98-2.93-.38-4.1-2.17-4.01-4.98Z"/>
  <path class="cls-43" d="M42.05,291.95c4.11,0,8.22.08,12.33-.02,3.84-.09,7.49.25,11.22-2.31,2.71-1.85,6.98-1.26,10.44.3.27,1.01.54,2.01.81,3.02-7.59-1.55-14.99-1.59-22.02,2.37-2.4,1.36-5.18.39-7.78.62-.78-2.44-3.41-2.56-5-3.98Z"/>
  <path class="cls-43" d="M35.05,284.95c2.72,1.71,4.74,4.03,6.01,6.98-3.43-1.1-5.87-3.06-6.01-6.98Z"/>
  <path class="cls-11" d="M366.14,272c.67-1.32.49-3.01,1.77-4.06,3.28.74,7.09.29,9.06,3.99-.71.02-1.42.04-2.12.06-2.9,0-5.81.01-8.71.02Z"/>
  <path class="cls-50" d="M365,275.95c.24-.38.48-.77.72-1.15,3.71.64,8.55-1.54,10.24,4.12-3.65-.99-7.3-1.98-10.95-2.97Z"/>
  <path class="cls-33" d="M130.06,67.06c24.85-16.42,51.04-18.95,78.48-7.33,7.47,3.16,7.48,3.51.76,8.37-22.18,16.04-43.37,33.35-64.44,50.79-6.89,5.7-13.24,12.05-19.84,18.1-3.89.7-3.26-2.45-3.38-4.39-.35-5.96-.59-11.97-.04-17.89,1.32-14.16,1.94-28.45,6.1-42.21.58-1.91,1.21-3.79,2.37-5.44Z"/>
  <path class="cls-51" d="M130.06,67.06c.36,5.76-2.7,10.78-3.47,16.37-2.29,16.68-4.26,33.34-3.56,50.21.06,1.5-.16,3.11,1.98,3.34-10.03,8.93-19.24,18.69-28.14,28.72-7.35,8.29-14.2,17-20.33,26.26-.78,1.18-1.09,3.18-3.1,2.47-1.45-.51-1.39-2.1-1.4-3.45-.09-21.71.58-43.4,6.41-64.47,3.4-12.29,10.25-22.92,18.32-32.75,6.97-8.48,14.72-16.07,23.97-22.14,2.98-1.95,6.12-3.23,9.32-4.58Z"/>
  <path class="cls-35" d="M80.02,100.98c-2.32-3.18-6.12-1.89-9.13-3.02,4.19-9.86,8.38-19.73,13.11-30.86,2.95,7.01,6.25,12.47,8.12,18.61-4.03,5.09-8.07,10.18-12.1,15.27Z"/>
  <path class="cls-52" d="M46.9,111.14c-9.57-3.99-17.91-9.45-22.83-19.02-1.09-2.13-1.75-3.79,1.36-5.03,15.74-6.3,31.41-12.78,47.11-19.17.88-.36,1.85-.51,2.95-.8.47,2.75-1.47,4.13-2.43,5.92-5.42,10.6-12.45,20.21-18.52,30.41-1.1,1.85-2.11,3.75-3.23,5.58-.99,1.61-2.17,3.01-4.4,2.11Z"/>
  <path class="cls-52" d="M112.13,23.97c7.61,1.6,13.71,5.49,18.27,11.84,1.84,2.57,1.8,4.08-1.5,5.47-13.86,5.88-27.62,11.99-41.42,18.02-1.02.45-2.35,1.4-3.04.07-.74-1.41,1.24-2.12,1.65-3.33,6.02-9.98,12.72-19.5,19.6-28.9,1.57-2.14,3.09-4.57,6.45-3.18Z"/>
  <path class="cls-14" d="M46.9,111.14c4.83-1.5,5.05-6.54,7.39-9.89,6.47-9.25,11.62-19.39,18.76-28.21-.61,5.06-3.66,9.15-5.49,13.72-2.7,6.75-5.75,13.38-9,19.89-4.24,8.46-1.79,8.41-11.67,4.49Z"/>
  <path class="cls-14" d="M112.13,23.97c-1.95.02-3.23.79-4.44,2.53-6.49,9.37-13.18,18.61-19.83,27.87-.47.65-1.18,1.12-1.78,1.67,4.51-10.84,9.82-21.31,15.45-31.58,2.57-4.69,7-.99,10.6-.49Z"/>
  <path class="cls-16" d="M239.98,64.76c1.62-5.17,7-5.96,10.68-8.25,11.38-7.06,23.36-13.02,36.74-15.85,15.26-3.23,24.61,5.76,21.89,21.07-2.55,14.37-10.63,25.87-18.3,37.64-.88,1.35-2.09,2.64-3.99,2.69-13.11-11.68-25.73-23.96-40.61-33.5-2.09-1.34-4.27-2.54-6.41-3.81Z"/>
  <path class="cls-27" d="M208.07,220.29c.66-6.05,1.83-15.92,2.75-25.81.23-2.49,1.18-3.4,3.53-3.79,10.94-1.82,21.85-3.8,32.78-5.69,6.36-1.1,12.76-2.03,19.08-3.3,2.71-.54,3.06.22,2.11,2.44-5.58,13-7.55,26.73-8.31,40.71-.11,2-.7,2.95-2.88,3.12-6.94.55-13.84,1.54-20.78,1.9-7.3.38-14.56.97-21.79,1.94-6.44.86-6.7.58-6.48-11.52Z"/>
  <path class="cls-5" d="M228.89,111.97c-7.53-3.61-9.55,0-9.55,13.47.97-.48,1.84-.87,2.69-1.33,4.37-2.36,6.96-1.78,8.46,2.96,3.58,11.29,4.3,22.75.36,34.18-1.01,2.92-2.35,5.78-5.95,5.82-3.38.04-4.59-2.94-5.89-5.37-5.24-9.79-5.95-20.59-6.66-31.35-.42-6.34.27-12.64,1.83-18.76.95-3.71,1.71-8.7,6.5-8.95,5.06-.26,6.05,4.73,8.2,9.34Z"/>
  <path class="cls-5" d="M267.14,108.59c-7.85-1.23-10.09,2.27-9.31,13.79.66.69,1.08.08,1.61-.25,5.33-3.31,8.56-2.56,10.07,3.45,2.97,11.8,5.27,23.86-1.58,35.22-3.29,5.45-6.66,5.2-9.8-.51-4.93-8.95-6.1-18.87-6.87-28.84-.59-7.67-.31-15.32,1.75-22.76.97-3.53,1.33-8.42,6.13-8.6,5.06-.19,5.98,4.76,8.01,8.5Z"/>
  <path class="cls-47" d="M228.87,134.79c0,1.15.13,2.32-.03,3.44-.2,1.36-.88,2.57-2.44,2.65-1.26.07-2.02-.76-2.62-1.88-1.23-2.31-1.17-4.78-.98-7.22.14-1.81.62-3.74,3.04-3.74,2.48,0,2.63,2.1,3.02,3.81.21.94.04,1.96.04,2.95,0,0-.02,0-.03,0Z"/>
  <path class="cls-25" d="M267.77,132.03c-.07,1.25.03,2.44-.23,3.55-.29,1.29-.89,2.54-2.45,2.75-1.58.21-2.52-.78-3.03-2.04-.49-1.2-.93-2.55-.89-3.81.09-2.61-1.17-6.54,2.72-6.88,4.41-.39,3.51,3.75,3.89,6.44Z"/>
</svg>