<?xml version="1.0" encoding="UTF-8"?>
<svg id="Layer_1" xmlns="http://www.w3.org/2000/svg" xmlns:xlink="http://www.w3.org/1999/xlink" viewBox="0 0 400 400">
  <defs>
    <style>
      .cls-1, .cls-2 {
        fill: none;
      }

      .cls-3 {
        fill: #006f00;
      }

      .cls-4 {
        fill: #018000;
      }

      .cls-5 {
        fill: #b5e3ef;
      }

      .cls-6 {
        fill: #272670;
      }

      .cls-7 {
        fill: #343399;
      }

      .cls-8 {
        fill: #1c2057;
      }

      .cls-9 {
        fill: #eaeaea;
      }

      .cls-10 {
        fill: #beebfb;
      }

      .cls-11 {
        fill: #030303;
      }

      .cls-12 {
        fill: #f6f6f6;
      }

      .cls-13 {
        fill: #105329;
      }

      .cls-14 {
        fill: #a5a5a5;
      }

      .cls-15 {
        fill: #fdfefd;
      }

      .cls-16 {
        fill: #ae0203;
      }

      .cls-17 {
        fill: #009800;
      }

      .cls-18 {
        fill: #949c9c;
      }

      .cls-19 {
        fill: #e10102;
      }

      .cls-20 {
        fill: #940302;
      }

      .cls-21 {
        fill: #82dbfb;
      }

      .cls-22 {
        clip-path: url(#clippath-1);
      }

      .cls-23 {
        clip-path: url(#clippath-3);
      }

      .cls-24 {
        clip-path: url(#clippath-2);
      }

      .cls-25 {
        fill: #020202;
      }

      .cls-26 {
        fill: #fff;
      }

      .cls-27 {
        fill: #c20000;
      }

      .cls-28 {
        fill: #beebfc;
      }

      .cls-29 {
        fill: #fefefe;
      }

      .cls-30 {
        fill: #f2f2f2;
      }

      .cls-31 {
        fill: #959b95;
      }

      .cls-32 {
        fill: #82dbfc;
      }

      .cls-33 {
        fill: #81dbfc;
      }

      .cls-34 {
        fill: #989898;
      }

      .cls-35 {
        fill: #cb0101;
      }

      .cls-36 {
        fill: #920505;
      }

      .cls-37 {
        clip-path: url(#clippath);
      }

      .cls-2 {
        stroke: #920505;
        stroke-miterlimit: 10;
        stroke-width: 1.4px;
      }

      .cls-38 {
        fill: #999;
      }

      .cls-39 {
        fill: #fdfdfd;
      }
    </style>
    <clipPath id="clippath">
      <rect class="cls-1" width="400" height="400"/>
    </clipPath>
    <clipPath id="clippath-1">
      <rect class="cls-1" width="400" height="400"/>
    </clipPath>
    <clipPath id="clippath-2">
      <rect class="cls-1" x="-508.07" y="-56.14" width="1442.81" height="958.6"/>
    </clipPath>
    <clipPath id="clippath-3">
      <rect class="cls-1" x="-508.07" y="-56.14" width="1442.81" height="958.6"/>
    </clipPath>
  </defs>
  <rect class="cls-26" x="0" width="400" height="400"/>
  <g class="cls-37">
    <g class="cls-22">
      <g class="cls-24">
        <g class="cls-23">
          <path class="cls-17" d="M934.57,452.18c0,148.18-.03,296.36.13,444.54,0,4.8-.94,5.75-5.74,5.74-217.42-.15-434.83-.13-652.25-.13-2.58-2.42-2.94-5.69-3.54-8.92-5.87-31.68-12.31-63.24-18.38-94.88-3.91-20.39-8.37-40.69-11.36-61.26-.25-6.81,2.91-10.02,9.67-12.05,20.52-6.17,41.1-12.23,61.3-19.44,22.65-8.08,44.67-17.6,64.72-31.12,6.59-4.44,13.68-8.01,20.43-12.17,5.54-3.42,6.59-7.56,5.19-12.91-2.59-9.89-4.81-19.87-7.12-29.82-4.53-19.51-8.41-39.19-13.29-58.6-5.66-22.53-10.09-45.34-15.97-67.84-4.05-15.49-6.34-31.49-10.64-46.97-4.61-16.61-6.81-33.77-11.87-50.28-2.05-6.69,1.42-10.51,8.33-9.8,3.01.31,6.25.57,8.72,2.37,12.54,9.12,27.81,10.65,42.05,14.49,13.65,3.68,27.82,6.49,42.11,6.81,12.52.28,25.04,1.95,37.62-.39,14.24-2.64,28.92-.98,43.18-3.95,11.18-2.33,22.42-4.27,33.55-6.97,11.5-2.79,23.88-2.7,34.82-7.31,17.56-7.4,33.53-.4,49.68,4.02,9.08,2.48,18.15,4.43,27.42,5.39,28.93,3,57.8,2.69,86.47-2.72,5.06-.96,10.21-1.17,15.27-2.05,3.86-.67,7.36.44,10.65,2.53,21.97,13.98,45.78,24.33,69.97,33.51,10.25,3.89,21.06,6.98,32.17,8.94,14.43,2.55,28.66,6.43,43.1,9.17,1.41.27,2.52,1.18,3.6,2.09"/>
          <path class="cls-17" d="M133.64,902.32c-211.67,0-423.35-.02-635.02.13-4.93,0-6.16-.86-6.15-6.04.18-162.1.15-324.2.15-486.3,6.59-3.08,13.58-4.86,20.7-6.01,5.12-.83,9.44,1.51,13.79,4.05,20.52,11.96,42.57,18.86,66.45,19.57,9.34.28,17.9-3.09,26.69-5.33,11.83-3.02,22.73-8.2,33.11-14.6,6.53-4.03,13.56-4.93,20.84-2.14,21.03,8.07,43.16,10.24,65.31,10.55,21.66.31,42.57-4.75,62.31-13.99,6.55-3.07,13.2-5.92,19.76-8.98,7.52-3.51,15.16-.47,22.71.64,22.16,3.28,44.3,7.44,66.77,7.03,28.13-.52,55.83-4.67,82.62-13.63,8.03-2.68,14.68-2.35,21.05,4.2,9.72,9.99,22.91,12.05,35.98,13.64,11.53,1.4,14.03,3.04,13.15,14.25-1.22,15.53-.22,31.22-3.47,46.64-1.53,7.27-1.26,14.87-1.61,22.27-1.2,24.9-3.26,49.75-5.01,74.59-1.37,19.46-2.44,39.01-4.68,58.45-1.35,11.76-1.95,23.66-2.83,35.49-1.15,15.32-2.11,30.66-3.13,45.99-.68,10.23-.04,10.69,9.68,12.43,19.04,3.42,37.63,9.02,56.81,11.76,7.37,1.05,14.73,2.31,22.2,2.33,5.91.01,8.97,2.5,9.5,8.68.43,5.08,1.26,10.17,2.19,15.22-1.15,36.77-3.88,73.46-5.15,110.22-.33,9.52-1.06,19.05-1.19,28.6-.05,3.78-.53,7.47-3.51,10.28"/>
          <path class="cls-4" d="M141.32,752.28c-.69-5.04-1.7-10.07-1.98-15.14-.22-4.08-1.65-5.82-5.85-5.96-23.35-.76-45.95-6.04-68.47-11.75-5.83-1.48-11.79-2.55-17.74-3.49-4.6-.73-6.18-3.29-6.27-7.69-.2-9.8.88-19.6,1.94-29.22,1.1-9.95.73-19.91,2.04-29.87,3.64-27.6,3.23-55.58,7.04-83.23,1.36-9.85.47-19.94,1.48-29.96,2.76-27.23,3.19-54.64,6.69-81.86,1.55-12.1,1.67-24.59,1.86-36.92.13-8.19-1.51-9.29-9.75-9.98-13.78-1.15-27.87-2.9-37.93-13.44-7.14-7.48-13.51-6.54-22.32-3.81-20.59,6.39-41.72,10.33-63.38,12.03-14.73,1.16-29.26.82-43.83-.42-12.46-1.07-25.4-1.37-37.1-5.16-17.22-5.57-31.11.64-45.54,7.77-12.05,5.96-24.74,10.13-38.19,11.49-7.16.72-14,3.32-21.36,2.89-23.42-1.36-46.89-2.25-69.1-11.1-7.39-2.94-13.94-1.25-20.56,2.71-20.31,12.15-42.05,20.05-66.04,19.43-12.61-.33-24.64-4.38-36.58-8.21-9.75-3.14-18.85-7.66-27.34-13.46-4.59-3.14-9.72-2.58-14.8-.9-5.08,1.68-10.08,3.81-15.64,3.07V98.79c6.15-7.3,15.18-9.91,23.38-13.42,22.34-9.57,46.09-14.51,70.19-14.78,34.58-.39,67.52,7.72,98.05,24.63,11.51,6.38,22.41,13.71,31.5,23.09,5.89,6.07,11.64,7.77,19.83,6.49,23.92-3.74,46.45.84,67.15,13.55,11.88,7.29,21.71,16.85,29.99,28.04,5.75,8.02,11,16.34,15,25.4,2.73,5.3,2.26,13.55,7.68,15.69,4.95,1.95,10.49-3.73,15.95-5.6,16.35-5.59,32.95-9.9,50.37-9.51,6.57.15,12.91-1.59,19.42-1.54,3,.02,4.09-1.6,4.06-4.4-.02-2.09-.02-4.18.03-6.28.88-5.87,1.63-11.77,3.21-17.51,4.67-18.32,13-34.84,24.46-49.86,3.72-4.87,8.24-8.86,12.62-13.04,14.35-11.58,31.12-16,49.17-16.53,3.04-.09,5.98.66,8.7,2.1,2.77,3.78-.46,4.89-2.9,5.95-7.06,3.07-14.05,6.31-21.31,8.86-4.38,1.54-5.17,3.84-3.32,7.94,6.6,14.56,18.26,23.2,32.83,28.52,4.37,1.6,6.42-1,8.14-4.42,4.28-8.55,8.52-17.11,12.89-25.62,1.45-2.82,2.53-6.29,6.85-5.88,2.86.87,4.48,2.86,5.21,5.67.59,3.45-.47,6.5-2.55,9.15-13.48,17.13-20.17,37.04-23.3,58.22-3.72,25.2-2.72,50.44.65,75.62,6.39,36.99,10.04,74.36,15.5,111.48.61,4.13,1.4,8.31-.04,12.47-3.11,5.87-1.86,12.37-2.63,18.57-3,23.85-3.12,47.91-5.27,71.82-1.73,19.28-2.88,38.6-4.53,57.88-1.42,16.48-2.64,33-3.66,49.51-1.38,22.34-3.68,44.62-4.81,66.97-.87,17.24-3.58,34.33-3.73,51.61-.04,4.22-.54,8.38-1.09,12.54-.69,5.26,1.48,8.54,6.72,9.7,26.18,5.82,52.22,12.44,79.1,14.45,3.95.29,8.04.17,10.82,3.81,1.27,7.52,3.77,15.14-1.63,22.17"/>
          <path class="cls-28" d="M43.6,86.35c-21.51-3.44-40.58,2.31-57.75,15.27-3.64,1.95-7.58,2.05-11.57,2.06-31.52.12-62.93-2.29-94.39-3.86-30.59-1.52-61.01-4.3-91.25-8.84-20.09-3.02-40.37-4.91-60.3-8.77-20.62-3.99-41.32-7.57-61.84-12.02-39.46-8.56-78.59-18.52-117.75-28.32-17.66-4.42-35.03-10.07-53.07-12.95-1.17-.19-2.14-.9-3.06-1.64V-41.44c1.7-1.49,3.86-2.3,5.86-1.61,9.04,3.16,18.56,1.63,27.76,3.11,23.03,3.72,46.12,7.13,69.19,10.53,17.3,2.55,34.57,5.66,52.06,6.96,6.8.51,13.15,3.45,19.9,3.99,22.56,1.82,44.78,6.16,67.22,8.91,20.14,2.46,40.33,5.05,60.5,6.87C-175.19,0-145.46,3.34-115.49,3.01c11.39-.12,22.83,1.36,34.28,1.1C-44.56,3.27-7.98,1.29,28.6-1.07c23.54-1.52,46.91-4.68,70.43-6.19,7.73-.5,15.05-3.19,22.71-4.28,24.52-3.5,48.8-8.23,72.85-14.24,22.64-5.66,45.28-11.59,68.46-14.46,34.07-4.22,68.26-7.17,102.69-6.21,17.05.47,34.14-.36,51.18.18,28.46.9,56.88,2.71,85.34,3.77,21.23.79,42.33,3.97,63.65,3.21,8.67-.31,17.24,1.02,25.68,3.03,2.51.6,5.04,1.17,7.62,1.04,27.15-1.35,53.9,3.11,80.81,5.39,16.98,1.44,34.15.81,51,3.28,22.02,3.24,44.34,1.73,66.31,5.09.46.07.93.17,1.39.13,22.93-1.52,45.54,3.38,68.45,3.24,13.03-.08,26.09,1.37,39.19,1.04,6.3-.16,12.6.18,18.87-.85,3.24-.54,6.56-.67,9.33,1.71V27.27c-1.8,1.5-3.9,1.36-6.01,1.04-19.85-3-40.07-2.65-59.82-6.73-7.52-1.55-15.35-1.32-23.02-1.74-27.73-1.52-55.43-3.75-83.03-6.43-48.71-4.72-97.48-3.8-146.24-3.39-16.07.13-32.28-.1-48.27,1.42-15.04,1.43-30.04,3.93-45.05,5.92-27.06,3.59-52.72,12.04-78.66,19.88-39.57,11.96-78.61,25.53-117.98,38.08-5.46,1.74-5.96,5.83-6.98,10.16-1.02,4.34-1.13,4.32-4.56,3.41-1.12-2.66-.78-5.49-.83-8.27-.26-12.6-7.11-19.82-19.83-20.52-7.28-.4-14.45,1.02-21.34,3.11-13.15,4-26.18,8.42-37.48,16.65-1.88,1.37-3.83,2.66-6.1,3.35-1.1.3-2.22.38-3.35.29-6.62-1.71-12.38-5.4-18.56-8.14-27.57-12.22-54.67-11.8-81.56,2.46-8.69,4.61-16.38,10.79-25.28,14.97-2.46.5-4.67-.26-6.57-1.69-3.16-2.36-7.19-4.65-7.1-8.95.09-4.26,4.77-4.57,7.82-5.92,12.79-5.66,25.79-10.84,38.74-16.12,6.04-2.46,6.46-4.16,2.26-9.05-7.45-8.66-16.34-15.13-27.58-18.21-5.69-1.56-9.25-.18-11.79,5.31-5.18,11.22-11.24,22-17.01,32.92-2.19,4.15-5.13,7.07-9.59,8.6-5.96,2.04-11.55,5.01-17.49,7.08-2.91,1.01-5.9,1.61-8.69-.46"/>
          <path class="cls-4" d="M934.57,121.23v221.57c-1.87,1.75-4.21,1.96-6.56,1.87-12.12-.44-24.09-1.54-36.1-3.79-18.15-3.41-36.1-7.49-53.83-12.5-20.23-5.72-38.29-15.82-54.46-29.28-3.28-2.73-6.19-7.73-11.11-5.39-4.52,2.15-2.59,7.46-2.93,11.49-.84,9.75.35,19.08,5.71,27.57.86,1.37,1.42,2.95,1.8,4.55,1.45,5.99-.55,8.58-6.68,7.77-12.68-1.66-25.12-4.16-37.57-7.57-15.21-4.17-29.77-9.41-43.84-16.28-12.21-5.96-23.3-13.61-33.09-23.05-1.87-1.8-4-3.2-6.06-4.74-7.28-5.41-7.82-5.28-10.07,3.84-2.63,10.65-4.66,21.43-12.37,30.08-4.74,5.32-10.04,8.13-17.31,9.2-24.82,3.66-49.74,4.1-74.71,3.91-32.82-.24-65.43-3.34-96.65-13.57-24.65-8.08-47.9-19.71-66.83-38.33-4.62-4.55-8.19-9.55-9.02-16.15-.69-3.16.64-5.97,1.58-8.82,4.88-14.84,9.93-29.63,14.82-44.48,2.61-7.93,1.81-9.29-6.39-10.89-6.17-1.21-12.35-2.44-18.7-2.47-2.73-.02-5.79.13-6.93-3.38-.36-3.08,1.64-5.27,3.01-7.65,9.67-16.77,22.91-30.56,36.68-43.91,20.35-15.67,42.46-27.71,67.88-33,14.88-2.8,29.87-3.61,44.96-2.63,12.37,2.1,24.93,3.03,36.95,7.21,19.87,6.91,37.81,16.97,53.5,31,19.22,17.22,34.37,37.44,44.69,61.16,3.43,7.88,3.38,8.08,10.92,4.07,30.88-16.42,62.79-18.07,95.62-6.81,10.26,3.52,19.61,8.87,28.19,15.41,4.36,3.32,6.18,2.33,7.98-2.36,7.3-19.02,18.21-35.74,32.67-50.12,19.39-21.25,42.86-36.26,69.91-45.87,15.48-5.5,31.55-7.9,47.8-9.4,2.33-.22,4.68-.06,6.54,1.73"/>
          <path class="cls-33" d="M501.09,116.91c-15.95-.28-31.83.74-47.66,2.72-14.29,1.63-28.65,2.13-42.99,3-32.47,1.98-64.33,10.5-97.12,9.21-2.8-.11-5.53.77-8.32.92-3.51.18-6.52-.58-7.72-4.45-.72-2.49.51-4.53,1.62-6.57,5.34-9.82,10.5-19.72,13.71-30.51.48-1.62.67-3.89,3.35-3.65.04.23.01.53.15.67.24.27.58.44.88.66-1.55-13.84,8.87-15.74,18.45-18.79,18.13-5.77,36.19-11.79,54.28-17.71,11.71-3.83,23.29-8.11,35.14-11.41,27.06-7.56,53.18-18.79,81.02-23.01,15.77-2.39,31.68-4.68,47.51-6.79,16.6-2.21,33.03-.98,49.46-2.29,34.06-2.72,68.17-1.25,102.22-.91,14.4.14,29.22-1.08,43.24,1.49,26.38,4.85,53.28,2.45,79.56,7.65,8.79,1.74,18.06.43,27.15,1.54,26.47,3.24,53.03,5.77,79.56,8.58v91.15c-1.93.97-4.12,1.8-6.08,1-13.69-5.55-28.21-2.94-42.29-4.15-72.53-6.23-145.26-2.11-217.91-2.88-16.05-.17-32.21.6-48.26,2.31-7.67.82-15.38-.1-23.09.11-27.98.75-55.98.69-83.94,2.17-3.97.21-7.93-.14-11.9-.07"/>
          <path class="cls-32" d="M934.57-16.2c-12.05.9-24.1,1.39-36.19,1.42-18.43.04-36.96-.36-55.2-1.9-30.84-2.6-61.92-1.97-92.51-5.69-28.86-3.51-57.95-3.05-86.74-7.36-11.51-1.72-23.84-.74-35.35-2.52-17.4-2.7-35.19,1.11-52.31-4.31-3.86-1.22-8.33-.65-12.52-.63-22.84.12-45.51-2.29-68.22-4.14-3.25-.27-6.55.03-9.81-.13-52.22-2.6-104.48-3.8-156.74-2.53-17.32.42-34.67,2.77-51.98,4.5-15.07,1.5-29.89,4.18-44.64,6.86-12.26,2.22-24.41,5.69-36.61,8.56-19.65,4.61-39.1,10.07-59.29,12.21-9.19.98-18.28,3.13-27.34,5.08-12.31,2.66-24.89,2.99-37.32,4.37C48.95.14,25.99,1.66,3.07,3.31c-10.44.75-20.94.8-31.39,1.21-23.76.95-47.54,2.77-71.35,1.67-27.34-1.26-54.67-2.67-82-4.25-23.41-1.35-46.68-4.59-69.89-7.48-19.69-2.45-39.5-5.47-59.17-8.15-19.26-2.62-38.42-6.33-57.78-8.56-16.75-1.93-33.8-3.09-50.2-7.37-7.55-1.97-15.19-2-22.75-3.16-17.14-2.63-34.12-6.71-51.72-6.13-4.65.15-9.12-3.51-14.22-2.54,0-4.67-1.82-11.17.51-13.51,2.34-2.34,8.84-.51,13.51-.51,473.88,0,947.75,0,1421.63-.13,5.26,0,6.68,1.15,6.45,6.45-.47,10.97-.14,21.96-.14,32.95"/>
          <path class="cls-3" d="M364.09,272.7c5.2,14.14,16.44,22.44,28.63,29.96,13.89,8.57,28.17,16.48,43.65,21.62,12.04,4,24.57,6.42,37.09,8.84,30.66,5.92,61.61,5.89,92.55,5.28,16.44-.33,33.09-1.35,49.15-4.55,10.85-2.16,15.97-12.7,19.16-23.02,2.19-7.1,3.8-14.37,5.97-21.48.97-3.19,2.54-5.81,6.33-2,16.64,16.72,35.74,29.55,57.52,39.04,12.91,5.63,26.67,7.68,39.73,12.52,8.94,3.31,19.08,3.4,28.69,4.85,4.53.69,3.83-2.77,3.21-4.99-.99-3.56-2.25-7.25-4.29-10.28-6.98-10.35-3.1-21.79-3.48-32.71-.17-4.79,4.69-6.63,9.13-4.32,6.86,3.58,11.72,9.72,18.09,14.1,15.72,10.8,32.57,18.59,50.99,23.16,8.55,2.12,17.16,4.02,25.74,6.04,20.6,4.83,41.31,8.79,62.62,8.05v50.48c-3.97,3.05-8.49,2.11-12.83,1.54-13.43-1.78-26.94-3.35-40.22-5.68-22.93-4.03-45.79-9.02-67.64-17.48-8.55-3.31-16.89-6.93-26.41-4.51-1.99.51-4.2.24-6.29.03-26.73-2.63-53.6-1.3-80.36-2.81-23.3-1.31-46.83-.57-69.83-4.68-10.14-1.82-18.62-.04-27.79,3.18-29.32,10.29-59.75,14.11-90.68,15.94-15.95.95-31.72-.41-47.53-.84-10.1-.27-20.45-1.64-30.37-4.63-7.63-2.3-15.56-3.32-23.43-4.25-18.83-2.21-37.41-5.47-55.64-10.77-14.22-4.13-14.86-3.3-11.81,11.04,1.24,5.85,3.89,11.67,1.01,17.78-4.04,1.43-3.93-2.2-4.4-4.12-2.11-8.55-4.85-16.97-5.87-25.77.06-3.08,1.2-5.9,2.19-8.74,8.01-23.02,14.87-46.42,22.83-69.47.88-2.55,1.17-5.61,4.6-6.35"/>
          <path class="cls-4" d="M344,387.39c.71-9.5-2.22-18.42-4.8-27.31-1.49-5.12.33-6.76,4.87-5.97,4.99.86,9.99,1.5,14.94,2.99,16.01,4.79,32.48,7.5,49.05,9.57,10.34,1.29,20.52,3.34,30.72,5.57,10.04,2.19,20.36,4.19,30.86,3.81,3.43-.12,6.92-.04,10.31.47,14.62,2.18,29.33.83,43.78-.38,23.94-2,47.98-4.49,70.9-12.7,5.03-1.8,10.21-3.19,15.13-5.25,6.78-2.84,13.01-2.16,20.18-.4,10.03,2.45,20.71,3.19,31.09,3.04,17.05-.24,33.98,2.09,50.99,1.56,13.08-.41,26.05,2.87,39.06,1.33,10.98-1.3,21.98,2.59,32.33,1.01,15.95-2.43,28.79,5.12,42.85,8.84,13.85,3.67,27.61,7.46,41.67,10.47,17.28,3.71,34.89,4.45,52.01,8.43,4.91,1.14,9.75.47,14.61.82v58.9c-12.49-1.23-24.66-4.19-36.85-6.97-11.89-2.71-23.89-5.14-35.5-8.77-10.61-3.31-21.18-7.29-31.02-12.4-9.71-5.04-20.01-8.72-29.68-13.83-4.31-2.28-9.09-4.37-12.42-7.47-8.36-7.77-17.65-4.87-26.36-3.18-23.48,4.56-47.15,5.74-70.89,4.77-22.53-.91-44.62-4.99-65.97-12.62-6.86-2.45-13.54-2.3-21-.37-12.25,3.16-24.38,7.04-37.32,7.9-9.04.6-17.77,4.48-26.91,6.06-13.98,2.42-27.89,5.21-42.14,4.73-8.72-.29-16.95,3.11-25.58,2.86-20.55-.58-40.91-1.97-61.22-6.23-13-2.73-25.22-7.98-38.33-9.98-7.19-1.09-11.44-8.49-19.26-8.88-5.73-.28-8.66,1.76-6.92,7.01,6.15,18.53,8.48,37.96,13.68,56.72,3.65,13.16,5.82,26.72,8.9,40,2.7,11.67,5.42,23.38,8.26,35.05,5.31,21.76,10.45,43.56,15.12,65.47,3.29,15.41,7.14,30.69,10.25,46.15,1.12,5.55,3.67,10.87,3.8,16.75.06,2.76-.43,5.23-2.88,6.72-21.27,12.94-42.04,26.84-65,36.7-21.94,9.42-44.86,16.16-67.67,23.13-7.53,2.3-14.94,5.03-22.58,6.87-5.59,1.34-1.74,6.12-3.92,8.5-3.69-2.28-2.52-5.74-2.2-9,1.2-3.82,4.71-4.11,7.79-5.05,23.44-7.2,46.94-14.18,70.07-22.38,22.64-8.02,43.35-19.64,63.47-32.48,4.34-2.77,8.94-5.07,13.26-7.86,4.1-2.65,5.32-6.13,4.22-10.82-7.8-33.19-15.68-66.35-23.22-99.6-7.9-34.84-15.85-69.66-23.93-104.46-3.32-14.31-6.34-28.7-9.96-42.95-1.21-4.78-3.67-9.78-.64-14.86"/>
          <path class="cls-20" d="M221.89,728.1c-7.48.02-14.96.13-22.28,2.02-6.61-.06-13.29-1.29-19.79.96-10.3.97-20.48-1.39-30.75-1.05-2.3-.05-4.6-.11-6.89-.16-11.53-1.41-23.16-2.28-34.57-4.36-18.53-3.37-36.9-7.6-55.37-11.31-6.36-1.28-8.94-4.48-8.4-11.21,3-37.35,5.73-74.72,8.48-112.09,2.44-33.2,4.55-66.43,7.23-99.61,2.21-27.39,4.5-54.75,5.79-82.21.48-10.19,2.57-20.33,2.46-30.6-.03-2.9,1.8-4.69,3.19-6.8,4.93-2.55,10.55-.52,15.58-2.39,20.07-.55,40.04-2.6,60.11-3.41,11.6-.47,23.28-.5,34.83-2.19,41.55-2.26,83.06-5.24,124.61-7.57,5.83.18,11.6.25,17.43-.86,3.99-.76,8.39-1.63,12.04,1.57,3.76,9.93,4.03,20.83,8.43,30.58.83,13.07,5.31,25.41,7.92,38.12,4.82,23.43,10.58,46.68,16.02,69.98,6.24,26.73,12.59,53.44,18.84,80.16,5.78,24.7,11.44,49.42,17.26,74.11,1.41,5.97-1.09,9.33-6.01,12.52-36.16,23.41-74.47,41.96-116.25,53.08-12.8,3.41-25.37,7.63-38.06,11.48-3.64-1.56-7.12.09-10.66.48-3.76-.26-7.53-.71-11.17.78"/>
          <path class="cls-18" d="M43.6,86.35c11.14-.25,20.12-6.88,30.21-10.24,2.15-.71,2.65-3.14,3.61-4.98,6.36-12.19,12.84-24.32,18.96-36.63,1.88-3.79,4.23-5.11,8.27-4.39,14.63,2.6,25.4,11.09,34.42,22.28,3.32,4.11,2.4,6.58-2.67,8.58-14.96,5.89-29.72,12.27-44.63,18.28-3.95,1.59-5.74,3.01-1.48,6.38,3.07,2.43,5.41,5.9,9.77,6.31-1.7,5.93-5.36,9.85-11.49,11.26-2.92-3.78-3.64-8.83-6.97-12.6-3.72,2.87-3.25,7.63-5.63,10.9-2.89.39-3.35,2.96-4.36,4.97-4.76,9.35-9.62,18.66-14.12,28.13-2.07,4.36-4.35,5.77-9.22,3.84-15.78-6.24-28.77-15.25-34.99-31.94-1.45-3.89-.72-5.84,3.24-7.34,8.06-3.05,15.94-6.55,23.92-9.82,1.48-.61,3.33-.69,3.16-2.99"/>
          <path class="cls-31" d="M86,371.13c-4.96,1.45-9.99.97-15.02.55-2.6-21.01-5.1-42.04-7.85-63.03-2.62-20.04-5.52-40.04-8.29-60.06-.85-5.32-.86-10.55,1.8-15.47,2.09-2.45,2.86-7.16,7.88-4.68,1.93,2.83,2.2,6.08,2.37,9.36,2.27,45.03,8.78,89.46,19.1,133.33"/>
          <path class="cls-13" d="M58.09,233.66c-2.71,4.63-3.62,9.64-3.24,14.94-2.55-3.94-1.98-8.75-2.05-12.79-.42-21.47-2.47-42.95,1.5-64.43,2.52-13.59,6.21-26.7,12.08-39.07,2.6-5.49,4.99-11.44,9.61-15.82,3.05-2.9,4.64-6.33,4.54-10.54,2.93-.47,4.23,1.21,4.9,3.72-.7,5.34-4.3,9.23-7.08,13.42-14.3,21.59-20.85,45.44-21.32,71.14-.09,4.88-.12,9.74-1.01,14.59-1.55,8.44.61,16.63,2.07,24.86"/>
          <path class="cls-5" d="M84.44,108.34c-1.31-.8-2.61-1.6-3.92-2.4-1.51-1.48-3.03-2.95-4.55-4.43-1.02-6.03,2.68-10.2,5.93-15.92,2.46,6.53,6.15,11.29,6.95,17.34.43,3.35-1.56,4.74-4.42,5.41"/>
          <path class="cls-34" d="M335.58,356.81c-9.79-.41-19.47,2.2-29.29,1.15.76-3.64,3.92-3,6.17-2.95,8.28.19,12.12-3.79,14.92-11.58,13.95-38.93,27.28-78.08,41.44-116.93,2.31-6.34,1.66-7.02-4.95-8.1-16.29-2.66-32.55-1.26-48.88-.31-17.47,1.01-34.94,2.32-52.41,3.02-15.4.61-30.78,1.16-46.11,2.76-.93.1.23.08-.7.05-2.7-.09-6.8.92-7.31-2.15-.53-3.19,3.63-3.5,6.21-4.09,25.31-5.84,51.09-8.85,76.7-12.9,13.57-2.14,15.66,1.09,8.68-15.39-11.95-28.2-28.44-53.66-49.13-76.22-8.53-9.31-18.94-16.61-29.85-23.07-2.21-5.09,3.06-5.52,5.01-8.03.94-.06,1.88-.12,2.81-.18,5.36,3.38,10.55,7.02,15.91,10.41,4.54,3.61,9.24,7.04,13.19,11.33,10.89,11.67,23.58,21.71,32.4,35.28,4.37,7.87,10.42,14.64,14.82,22.49,6.48,9.45,12.11,19.46,16.11,30.1,3.37,8.97,9.43,11.11,17.91,10.77,2.99-.12,5.83-1.68,8.87-.79,1.02,3.14,3.77,2.25,5.91,2.36,7.48.39,14.83,1.58,22.15,3.07,7.39,1.5,8.04,2.73,5.84,9.9-5.73,18.7-13.04,36.9-17.91,55.88-3.44,9.78-6.99,19.53-10.3,29.36-6.14,18.23-12.15,36.5-18.21,54.76"/>
          <path class="cls-8" d="M226.08,82.07c.49,4.2-4.38,3.96-5.58,6.76-.32,2.1-2.02,3.04-3.54,4.07-32.81,22.16-63.6,46.93-93.6,72.71-17.12,14.78-32.78,31.02-48.01,47.72-4.24,4.65-6.61,10.75-11.82,14.58-2.58,1.19-3.72,3.74-5.44,5.75-3.84-3.48-4.42-8.47-4.15-12.86,1.01-16.64.43-33.35,3.41-49.92,3.64-20.29,11.74-38.42,23.41-55.2,1.54-2.21,3.85-4.2,3.68-7.33,1.47-1.8,2.94-3.61,4.42-5.41,3.73-3.66,7.47-7.32,11.2-10.99,12.11-8.64,24.39-17.08,38.59-21.96,21.95-7.56,43.81-6.95,65.29,1.91,7.5,3.09,14.76,6.77,22.14,10.18"/>
          <path class="cls-36" d="M289.44,139.46c-9.65-12.74-21.66-23.29-32.45-34.98,3.38-2.15,5.2.69,7.09,2.46,5.28,4.92,10.31,10.12,15.38,15.27,3.25,3.3,6.02,3.16,8.48-.73,6.21-9.84,12.6-19.59,15.8-30.97.83-2.96.77-6.01.58-9.03-.56-8.97-5.04-13.09-13.96-12.97-15.68.21-29.1,7.31-42.8,13.74-5.99,2.81-3.6,7.14-3.23,11.31-5.53-3.38-11.85-5.72-15.43-11.67,16.52-11.76,34.76-19.46,54.74-22.88,4.08-.7,8.36-.87,12.49-.55,12.76.99,20.13,9.34,19.97,22.16-.03,2.32-.09,4.64-.14,6.96-4.14,13.9-10.73,26.71-17.7,39.34-1.28,5.35-3.06,10.33-8.81,12.54"/>
          <path class="cls-10" d="M289.44,139.46c2.94-4.18,5.87-8.36,8.81-12.54.94,3.55,3.3,4.99,6.76,4.02,8.26-2.32,16.7-.69,25.03-1.33,18.93-1.46,37.89-3.04,56.46-7.02,8.1-1.74,16.24-1.62,24.23-1.95,14.2-.59,28.41-3.71,42.7-1-22.79,5.89-43.46,16.21-62.46,29.98-1.11.8-2.05,1.85-3.07,2.78-11.38,2.46-22.98,3.83-34.51,4.25-13.11.48-26.02,2.7-39.08,3.23-3.66.15-6.58,3.99-10.58,1.93-4.62-7.54-10.75-14.11-14.29-22.33"/>
          <path class="cls-21" d="M303.73,161.8c7.12-5.5,15.89-4.31,23.91-5.24,19.38-2.27,38.9-3.42,58.36-4.97.61-.05,1.27.52,1.9.8-15.49,14.57-29.36,30.44-39.8,49.1-9.27,6.01-22.62,2.48-27.05-7.09-5.18-11.18-10.84-22.11-17.32-32.6"/>
          <path class="cls-35" d="M156.09,372.26c25.74-.95,51.52-1.32,77.22-3.03,18.52-1.23,37.1-1.02,55.57-2.69,6.23-.56,12.4-1.7,18.69-1.28.31,1.89-1.11,2.62-2.41,2.78-6.79.88-6.92,4.72-5.9,10.48,3.25,18.32,7.97,36.27,12.68,54.24,1.27,4.84,2.55,9.42,7.26,12.15.99.58,1.46,1.78.98,3.06-20.87-.29-15.83,2.84-25.09-15.21-7.4-14.43-14.53-29-21.8-43.5-1.13-2.26-2.1-5.38-5.01-5.2-2.92.18-4.48,2.91-5.58,5.62-4.13,10.19-10.3,19.3-15.3,29.02-3.09,5.99-7.03,11.46-9.22,18.16-2.79,8.53-11.52,10.48-19.53,10.78-11.91.43-22.84,5.65-34.71,6.11-4.15.16-5.23,3.04-2.35,6.26,3.42,3.82,7.18,7.35,10.82,10.98,9.54,9.54,19.09,19.07,28.64,28.6,4.39,4.38,6.96,8.14,3.94,15.51-8.7,21.21-16.15,42.95-23.63,64.64-1.59,4.6-5.03,12.04-1.89,14.17,4.39,2.98,9.23-3.36,13.56-6.07,13.57-8.5,26.78-17.57,40.31-26.15,4.25-2.7,8.69-5.26,12.87-7.96,6.2-4,11.27-2.88,16.69.36,16.37,9.77,33.91,17.54,49.49,28.68,1.89,1.35,4.02,1.75,5.94.74,2.37-1.24,1.7-3.72,1.07-5.63-3.9-11.86-7.88-23.72-11.61-35.6-3.03-9.67-7.53-18.86-9.44-28.91-1.2-6.31,3.37-10.05,6.26-14.04,6.52-9.01,14.04-17.31,21.3-25.78,1.6-1.86,3.09-4.74,6-4.24,3.04.52,2.82,3.88,3.83,6.13,1.31,2.91.83,5.96.93,8.98-.23.04-.53.2-.68.1-8.39-5.42-7.96-5-15.62,2.9-5.26,5.43-9.35,10.84-9.7,18.59-.14,3.06.25,5.95,1.05,8.93,3.31,12.33,7.72,24.39,10.12,36.92,3.33,17.38,9.28,34.04,13.55,51.17,2.81,11.27,6.02,22.47,8.8,33.78.84,3.4,1.31,6.92,2.92,10.05,2.1,4.08,2.61,10,9.87,8.31,8.13-1.89,12.96-7.15,12.68-14.3-.14-3.57-2.42-7.31.72-10.66,3.67,5.4,4.9,11.56,5.49,17.9.23,2.48-1.82,2.75-3.44,3.67-14.87,8.49-30.94,14.6-45.94,22.68-14.34,7.73-29.51,13.26-44.46,19.19-21.08,8.37-43.26,13.05-65.98,15.47-8.86.94-17.69,3.16-26.67,3.9-17.33,3.13-34.83,1.91-52.27,2.02-5.26.03-7.75-3.71-9.3-8.16-9.26-26.5-15.01-53.91-19.85-81.44-3.29-18.76-3.36-37.97-4.81-56.99-1.7-22.14-1.45-44.3-1.39-66.46.05-18.48,3-36.59,6.79-54.64,4.76-22.63,11.81-44.58,18.44-66.68,1.51-5.04,4.59-7.2,9.1-8.4"/>
          <path class="cls-29" d="M122.45,164.81c30.73-27.85,63.39-53.21,98.05-75.98,16.96,6.95,29.58,19.43,40.71,33.28,18.61,23.17,34.33,48.14,44.5,76.33,1.93,5.34.83,6.4-4.63,7.12-29.05,3.87-58.13,7.7-86.78,14.08-1.55.35-3.02,1.03-6.21,2.15,20.82-.99,39.88-1.82,58.94-2.83,23.52-1.24,47.05-2.3,70.53-4.08,10.38-.79,20.4,1.12,30.58,1.93,3.93.31,5.68,1.53,4.03,6.14-15.3,42.74-30.42,85.55-45.5,128.37-1.08,3.06-2.79,4.06-5.99,4.57-4.79.77-9.83-.11-14.39,2.05-39.27,2.44-78.54,4.89-117.82,7.3-2.32.14-4.65.03-6.98.04-6.23,1.32-12.53.31-18.8.6-2.79.13-5.54.1-8.33.73-9.45,2.12-12.6.7-16.39-8.37-3.79-9.08-5.76-18.79-7.31-28.43-3.76-23.5-9.01-46.81-10.88-70.55-2.25-28.58-4.7-57.25-.05-85.87.49-3,.88-6.02,2.71-8.6"/>
          <path class="cls-16" d="M156.09,372.26c-4.36,2.63-5.95,6.48-7.68,11.42-4.96,14.17-8.43,28.76-12.97,43.03-2.73,8.57-3.96,17.62-6.02,26.42-7.06,30.23-6.06,60.98-5.41,91.61.41,19.03,1.4,38.16,3.14,57.07,1.74,18.96,5.35,37.89,9.61,56.65,3.2,14.06,6.72,27.84,11.81,41.29.56,1.47.31,3.22.55,4.83.93,6.22,4.98,9.71,11.38,9.83,16.32.3,32.62-.09,48.89-1.39-4.46,2.12-9.3,2.34-14.09,2.78-1.62.15-3.28-.07-4.9.04-24.13,1.69-47.51-2.64-71.03-7.46-13.12-2.69-26.14-6.05-39.45-7.99-6.59-.96-12.81-3.78-19.61-4.44-4.68-.45-5.77-4.87-5-8.6,2.66-12.88.85-25.95,2.3-38.94,2.58-23.05,3.41-46.3,4.98-69.46.82-12.14,2.52-24.17,2.58-36.44.08-14.33,2.2-28.64,3.37-42.97,1.16-14.27,2.41-28.53,3.33-42.81,1.55-23.87,2.75-47.77,4.37-71.64.34-5.04,2.85-8.31,8.88-8.77,19.49-1.47,38.98-2.66,58.53-2.75,4.15-.02,8.29-.86,12.43-1.33"/>
          <path class="cls-29" d="M206.51,583.3c7.64-21.22,13.73-41.28,22.11-60.32,5.67-12.9,5.24-21.6-6.67-30.49-10.01-7.48-18.28-17.31-27.2-26.22-1.89-1.89-4.43-3.37-5.35-6.63,14.93-1.99,29.63-4.18,44.38-5.77,4.12-.44,6.17-2.08,7.81-5.56,8.45-17.88,17.05-35.68,25.68-53.68,3.16,1.68,3.73,4.86,5,7.37,7.91,15.56,15.73,31.18,23.33,46.9,1.72,3.56,3.67,5.11,7.86,5.07,14-.14,28,.23,42,.41,2,.02,4.4-.85,5.34,1.89.83,2.43.04,4.34-1.8,6.26-12.74,13.31-25.24,26.87-38.11,40.05-3.51,3.6-4.48,6.38-2.47,11.42,7.83,19.62,15.01,39.5,23.11,61.1-10.43-5.8-19.4-10.78-28.38-15.78-9.76-5.44-19.68-10.62-29.18-16.48-3.73-2.29-6.09-1.62-9.24.57-16.44,11.48-32.98,22.81-49.49,34.17-2.4,1.65-4.87,3.19-8.74,5.72"/>
          <path class="cls-9" d="M122.45,164.81c-2.39,18.23-3.61,36.52-2.83,54.91.97,22.91,2.28,45.71,6.49,68.4,3.92,21.14,6.5,42.51,11.55,63.47,1.14,4.71,3.85,8.36,5.71,12.53,1.33,2.99,4.74,2.87,7.48,2.28,10.17-2.16,20.42-.96,30.64-1.11-13.6,1.92-27.33,2.07-41.01,2.81-18.16.98-36.31,2.01-54.47,3.03-3.41-.57-3.46-3.69-3.92-5.93-6.25-30.27-11.3-60.74-14.38-91.5-1.53-15.25-2.79-30.53-4.17-45.8,3.76-8.66,10.54-15.01,16.61-21.95,13-14.86,26.99-28.68,42.31-41.15"/>
          <path class="cls-19" d="M320.19,447.98c-10.65-5.49-10.43-16.35-12.55-25.92-1.29-5.84-3.87-11.18-4.89-17.27-1.56-9.3-3.68-18.61-5.6-27.91-1.8-8.72-2.01-8.71,6.67-10.2,1.38-.24,2.82-.08,3.75-1.42,5.77-.47,11.54-.94,17.3-1.41,4.92-.4,7.78,1.41,8.64,6.68,2.6,15.94,6.84,31.56,9.58,47.51,1.05,6.11,1.82,12.62,4.24,18.68,3.6,9.05.95,12.75-8.42,12.53-6.25-.15-12.49-.83-18.73-1.27"/>
          <path class="cls-15" d="M75.24,82.02c-8,15.98-15.18,30.33-22.37,44.68-1.03,2.05-1.76,4.53-5.03,2.99-10.22-4.8-19.98-10.05-25.4-20.78-2.01-3.97-2.47-6.21,2.84-8.08,16.21-5.71,32.19-12.06,49.98-18.81"/>
          <path class="cls-39" d="M81.8,75.41c6.22-11.39,12.47-22.76,18.62-34.18,1.14-2.11,2.52-3.21,4.97-2.68,9.9,2.16,18.29,6.48,23.82,15.5,1.72,2.81,1.18,4.08-1.58,5.15-14.87,5.8-29.74,11.61-44.6,17.42-.41-.41-.82-.81-1.22-1.22"/>
          <path class="cls-27" d="M244.33,93.56c-.23-3.21-5.78-4.39-4.17-7.22,1.68-2.97,5.22-5.47,8.51-6.85,12.74-5.33,25.01-11.72,39.34-12.95,13.29-1.14,22.17,10.25,17.62,24.62-3.73,11.81-10.29,22.22-16.93,32.55-2.87,4.45-5.72,5.25-9.71.68-5.06-5.78-10.77-10.99-16.26-16.39-1.62-1.6-2.99-3.72-5.74-3.51-4.22-3.64-8.44-7.28-12.66-10.93"/>
          <path class="cls-7" d="M139.29,79.21c10.69-3.12,21.36-5.86,32.71-5.78,12.67.09,24.08,4.28,35.5,8.95,5.42,2.22,4,4.57.5,7.15-9.89,7.31-20.21,14-30.22,21.14-14.01,10-26.92,21.32-40.64,31.63-4.63,3.48-8.91,7.41-13.35,11.13-5.7,2.93-7.08,2.24-7.48-4.3-.79-13.3.44-26.46,3.42-39.45.68-2.94,1.69-5.85,1.84-8.86.6-11.6,7.58-17.88,17.71-21.62"/>
          <path class="cls-6" d="M139.29,79.21c-4.31,4.35-11.5,5.8-13.34,12.58-5.3,19.54-8.89,39.33-7.73,59.72.29,5.19,3.61,1.58,5.57,1.93-5.07,6.38-11.57,11.46-17.68,16.56-11.89,9.93-20.25,23.04-31.88,33.08-2.67,2.3-2.23,6.6-5.34,8.85-2.4,1.73-4.04,1.9-3.92-1.51.3-8.34-1.55-16.86,1.65-24.96,1.26-3.19,1.05-6.41,1.07-9.66.11-18.98,6.96-35.7,17.04-51.38,7.85-12.21,17.15-23.27,29.1-31.41,6.43-4.37,13.51-7.74,19.38-13.07,1.23-1.12,4-.53,6.06-.73"/>
          <path class="cls-25" d="M265.37,154.9c.42,10.23.49,20.47-2.84,30.31-1.12,3.32-1.72,8.02-6.46,7.97-4.68-.05-6.2-4.24-7.57-8-3.41-9.4-3.12-19.12-2.48-28.87,5.16-1.44,3.53,3.51,5.13,5.4,1.87,1.79,2.29.13,2.63-1.21.5-2,.29-4.21,1.87-5.89,3.31-1.92,6.56-2.31,9.71.3"/>
          <path class="cls-11" d="M227.35,156.32c.4,10.75-.28,21.38-4.02,31.59-.92,2.5-1.51,5.61-4.87,6.19-3.57.62-4.86-2.42-6.24-4.65-6.09-9.91-5.01-20.88-4.31-31.76,5.38-1.35,3.73,3.65,5.25,5.74,3.56-.89,1.76-4.85,3.82-6.57,3.32-2.96,6.77-3.24,10.37-.53"/>
          <path class="cls-38" d="M227.35,156.32c-3.12,1.45-7.58-1.67-9.8,2.87-4.59.13-2.9,5.13-5.36,6.91-2.19-1.45-1.46-3.73-1.51-5.72-.04-1.95-.48-3.19-2.77-2.69-5.12.05-10.25.15-15.37.11-1.48-.01-3.69.62-3.88-1.75-.24-2.96,2.28-2.33,3.98-2.42,18.58-1.01,37.16-1.96,55.74-2.95,7.89-.42,15.78-1,23.68-1.31,1.55-.06,4.23-1.16,4.34,1.8.08,2.3-1.39,3.84-4.04,3.75-2.33-.08-4.66-.01-6.99,0-3.26.59-6.78-.61-9.82,1.45-4.08.69-3.24,5.32-5.78,7.23-2.77-1.64,1.72-7.02-3.75-7.27-6.22,0-12.45,0-18.67.01"/>
          <path class="cls-14" d="M216.99,144.42c9.33-.59,18.66-1.2,27.99-1.74.88-.05,1.94.25,2.04,1.44.12,1.53-.99,2-2.2,2.01-9.26.04-18.53.02-27.79.02-.01-.58-.02-1.16-.04-1.73"/>
          <path class="cls-12" d="M249.77,163.57c2.23-2.17-3.49-10.69,5.78-7.23-.16,2.52.25,5.25-.6,7.5-1.59,4.19-3.67,4.01-5.18-.27"/>
          <path class="cls-30" d="M212.19,166.1c-.62-9.26-.48-9.45,5.36-6.91-.89,1.6-1.02,3.29-1.1,5.12-.13,3.03-1.61,4.12-4.26,1.79"/>
        </g>
      </g>
      <path class="cls-36" d="M237.81,88.49c5.6,3.27,9.8,6.07,14,10.27,4.2,4.2,7.47,7.93,10.74,10.73"/>
      <path class="cls-2" d="M237.81,88.49c5.6,3.27,9.8,6.07,14,10.27,4.2,4.2,7.47,7.93,10.74,10.73"/>
    </g>
  </g>
</svg>