<?xml version="1.0" encoding="UTF-8"?>
<svg id="Layer_1" xmlns="http://www.w3.org/2000/svg" viewBox="0 0 400 400">
  <defs>
    <style>
      .cls-1 {
        fill: #73d3e0;
      }

      .cls-2 {
        fill: #55c2a8;
      }

      .cls-3 {
        fill: #38ad71;
      }

      .cls-4 {
        fill: #fefdfd;
      }

      .cls-5 {
        fill: #d80033;
      }

      .cls-6 {
        fill: #010101;
      }

      .cls-7 {
        fill: #9fe3fb;
      }

      .cls-8 {
        fill: #eaeaea;
      }

      .cls-9 {
        fill: #73d3e1;
      }

      .cls-10 {
        fill: #beecfb;
      }

      .cls-11 {
        fill: #c3002c;
      }

      .cls-12 {
        fill: #4ebb92;
      }

      .cls-13 {
        fill: #1d1d58;
      }

      .cls-14 {
        fill: #e2e2e2;
      }

      .cls-15 {
        fill: #33a962;
      }

      .cls-16 {
        fill: #d80000;
      }

      .cls-17 {
        fill: #4bbb93;
      }

      .cls-18 {
        fill: #48b889;
      }

      .cls-19 {
        fill: #81dbfd;
      }

      .cls-20 {
        fill: #0e8f1b;
      }

      .cls-21 {
        fill: #239e43;
      }

      .cls-22 {
        fill: #209d3d;
      }

      .cls-23 {
        fill: #5fc8bb;
      }

      .cls-24 {
        fill: #e7e7e7;
      }

      .cls-25 {
        fill: #a0e0fa;
      }

      .cls-26 {
        fill: #666;
      }

      .cls-27 {
        fill: #9dacb2;
      }

      .cls-28 {
        fill: #9fe3fc;
      }

      .cls-29 {
        fill: #a0e3fc;
      }

      .cls-30 {
        fill: green;
      }

      .cls-31 {
        fill: #199831;
      }

      .cls-32 {
        fill: #ba012a;
      }

      .cls-33 {
        fill: #333398;
      }

      .cls-34 {
        fill: #a1e4fb;
      }

      .cls-35 {
        fill: #82dafc;
      }

      .cls-36 {
        fill: #beecfc;
      }

      .cls-37 {
        fill: #fefefe;
      }

      .cls-38 {
        fill: #a30125;
      }

      .cls-39 {
        fill: #0e8e1d;
      }

      .cls-40 {
        fill: #4dbc91;
      }

      .cls-41 {
        fill: #51c09c;
      }

      .cls-42 {
        fill: #82dbfc;
      }

      .cls-43 {
        fill: #2ea55b;
      }

      .cls-44 {
        fill: #2aa652;
      }

      .cls-45 {
        fill: #0b8c14;
      }

      .cls-46 {
        fill: #62c9bd;
      }

      .cls-47 {
        fill: #989898;
      }

      .cls-48 {
        fill: #ededed;
      }

      .cls-49 {
        fill: #36ac68;
      }

      .cls-50 {
        fill: #24a247;
      }

      .cls-51 {
        fill: #252570;
      }

      .cls-52 {
        fill: #fdfdfd;
      }
    </style>
  </defs>
  <path class="cls-19" d="M.07,23.08C.07,16.42.21,9.75,0,3.1-.07.59.57,0,3.07.03c14.99.14,29.99.07,44.98.07C164,.1,279.95.11,395.9,0c3.42,0,4.13.67,4.1,4.09-.19,22.99-.1,45.98-.1,68.97-6.39,5.01-14.3,7.23-21.07,11.56-6.08-.14-10.95-3.71-16.18-6.05-11.98-5.38-24.06-10.54-36.01-16-2.71-1.24-4.64-2.87-6.04-5.56-5.98-11.51-11.37-23.3-17.22-34.88-3.31-6.56-3.72-6.76-11.11-5.84-13.69,1.71-23.18,10.11-31.98,19.65-2.44,2.65-.6,4.15,1.84,5.2,9.93,4.27,19.58,9.16,29.41,13.64,5.75,2.62,11.63,4.95,17.19,7.96,4.32,2.34,4.52,3.96.26,6.55-3.73,2.27-6.32,6.66-11.44,6.48-8.22-5.32-15.9-11.44-24.4-16.38-23.9-13.86-49.22-16.5-75.6-9.42-8.97,2.41-17.12,7.3-26.13,9.8-1.37.08-2.64-.33-3.89-.79-9.55-6.31-19.19-12.4-29.9-16.73-11.96-4.84-23.99-8.68-37.15-7.92-8.23.48-14.52,4.75-17.47,12.47-.64,1.66-.32,4.19-3.14,4.33-1.23-1.35-2.41-2.68-4.37-3.1-7.36-1.58-14.14-4.7-21.07-7.56-8.76-3.62-18.24-4.99-27.28-7.87-7.75-2.47-15.26-5.75-23.31-7.24-1.53-.28-2.75-1.13-3.76-2.29Z"/>
  <path class="cls-19" d="M.07,270.97V95.05c2.86-2.2,5.78-1.1,8.47.15,13.09,6.07,26.09,12.44,38.3,20.09,6.17,3.86,12.59,7.33,18.56,11.37,5.44,3.68,10.51,7.91,16.46,10.88,1.04.52,1.74,1.53,1.95,2.76.19,2.16-.95,3.82-2.13,5.44-5.21,7.15-9.24,14.98-13.07,22.91-1.99,4.11-1.56,4.75,3.04,5,11.92.65,23.86,1.17,35.63,3.43,4.67.71,9.43.79,14.03,1.98,2.54.95,3.85,3.08,4.97,5.34,5.93,11.99,8.35,24.85,9.02,38.07.23,4.66-1.61,6.24-7.08,5.84-9.11-.67-18.21-1.51-27.32-2.22-19.21-1.5-38.36-3.65-57.61-4.75-6.13-.35-12.24-1.19-18.35-1.82-5.28-.54-5.58-.03-4.22,5.01,2.2,8.2,5.02,16.2,7.5,24.31.54,1.75,1.16,3.47,1.16,5.33-.02,2.06-.34,4.19-2.29,5.21-8.06,4.19-15.45,9.81-24.6,11.71-.82.17-1.63.3-2.41-.13Z"/>
  <path class="cls-5" d="M246.97,399.91h-104.95c-3.45-2.45-4.57-6.41-6.42-9.89-7.59-14.2-14.22-28.9-22.18-42.83-1.68-.13-2.05,1.16-2.6,2.08-9.21,15.41-18.61,30.69-28.17,45.89-1.06,1.69-2.06,3.43-3.6,4.75H30.06c-1.21-1.45-1.1-3.06-.58-4.72,7-22.57,13.63-45.25,20.5-67.86,1.05-3.46,3.11-4.73,6.71-4.27,28.88,3.69,57.85,6.63,86.77,9.95,22.8,2.62,45.6,5.3,68.44,7.59,7.2.72,14.54,1.01,21.52,3.34,3.31,4.79,4.06,10.5,5.39,15.94,2.66,10.82,5.23,21.65,8.12,32.41.67,2.49,2,5.08.03,7.62Z"/>
  <path class="cls-30" d="M399.9,258.98c0,45.81-.04,91.63.08,137.44,0,2.98-.6,3.6-3.58,3.58-27.49-.14-54.98-.09-82.46-.09-2.72-6.24-2.09-12.96-2.44-19.46-.56-10.23.27-20.52-.81-30.74,2.43-14.9,6.06-29.58,8.64-44.46.34-1.96.68-3.95,2.22-5.43,1.72-1.09,3.59-.61,5.34-.28,8.17,1.58,16.48,1.83,24.71,2.87,7.91,1,15.21-2.98,18.26-9.83,4.51-7.67,8.24-15.83,14.22-22.59,3.41-3.86,7.57-6.87,11.36-10.3,1.17-1.06,2.75-2,4.48-.71Z"/>
  <path class="cls-10" d="M399.9,86.06v121.94c-1.12,1.06-2.44,1.74-3.94,1.97-13.56,2.04-26.88,5.93-40.77,5.56-4.32-.11-8.53,1.24-12.87.93-4.62-.33-5.95-1.58-5.67-6.21.23-3.95,1.24-7.84.84-11.84-.77-10.07.79-20.09.2-30.22-1.02-17.55-4.1-34.48-10.9-50.71-.83-1.97-1.81-3.93-1.85-6.15,1.94-4.36,3.63-5,8.78-3.36,3.03,2.37,4.16,5.95,5.63,9.24,1.67,3.74,3.84,4.7,7.85,3.26,10.93-3.9,21.02-8.89,28.91-17.77,3.23-3.63,4.75-8.4,8.42-11.64,3.8-1.98,8.05-2.93,11.71-5.24,1.16-.73,2.5-.83,3.67.22Z"/>
  <path class="cls-36" d="M.07,83.06v-47.98c2.71-2.04,5.51-.64,8.13.03,23.53,6.07,46.16,15.07,69.53,21.65,1.97.55,3.21,1.65,3.56,3.69.28,1.65.86,3.21,1.56,4.72,3.38,10.64,8.34,20.6,13.33,30.54,2.61,5.19,6.61,9.58,8.66,15.09.29,1.35.2,2.72-.63,3.8-4.81,6.23-9.23,12.79-15.12,18.12-.85.14-1.7.08-2.38-.46-12.89-10.27-27.57-17.88-40.91-27.51-5.03-3.63-11.34-5.35-16.89-8.35-9.33-5.05-18.91-9.6-28.86-13.33Z"/>
  <path class="cls-30" d="M22.06,399.91c-6.33,0-12.67-.14-18.99.07-2.51.08-3.07-.57-3.07-3.07.1-31.99.06-63.97.06-95.96,2.26-3.03,5.13-5.14,8.82-6.14,3.14-.85,5.57-3.02,8.07-4.87,5.06-3.77,11.17-5.06,16.68-7.74,2.65-1.29,3.49.86,4.7,2.36,4.08,10.56,7.37,21.37,9.96,32.39-2.09,10.45-5.89,20.41-8.96,30.58-4.67,15.42-9.54,30.79-14.13,46.24-.66,2.24-1.43,4.44-3.15,6.14Z"/>
  <path class="cls-11" d="M246.97,399.91c-2.46-10.23-4.88-20.47-7.4-30.69-2.01-8.15-3.47-16.45-6.59-24.29,2.24-2.06,4.99-1.58,7.59-1.36,13.74,1.18,27.39,3.24,41.13,4.41,4.63.4,9.29.44,13.9,1.19,6.7,1.09,8.53,2.56,8.69,9.74.21,9.31,1.82,18.55,1.18,27.87-.3,4.39,1.22,9.01-1.53,13.12h-56.97Z"/>
  <path class="cls-38" d="M303.94,399.91c.43-13.6-.47-27.18-1.02-40.76-.28-6.88-.87-7.53-7.89-8.25-16.57-1.7-33.17-3.17-49.71-5.12-4.13-.49-8.22-.82-12.35-.86-6.97-.99-13.93-2.07-20.92-2.95-13.59-1.71-27.29-2.38-40.83-4.69-7.63-1.3-15.45-1.49-23.16-2.37-18.86-2.16-37.7-4.48-56.56-6.63-12.3-1.4-24.72-1.76-36.9-4.21-2.39-.48-2.63,1.6-3.08,3.1-4.66,15.53-9.23,31.09-13.91,46.61-2.24,7.43-4.71,14.8-7,22.22-.38,1.24-.37,2.6-.54,3.91h-8c5.09-16.82,10.18-33.64,15.28-50.46,3.32-10.96,6.68-21.91,10.02-32.86,3.63-2.85,7.59-.34,11.37-.72,31.16,3.79,62.3,7.77,93.45,11.6,25.22,3.1,50.45,6.07,75.64,9.38,10.1,1.85,20.39,2.04,30.51,3.67,13.08,2.1,26.37,2.61,39.37,5.32,2.56,1.02,5.25.51,7.88.69,2.32.15,4.71.1,6.31,2.25.68,17.05,1.36,34.1,2.05,51.15h-10Z"/>
  <path class="cls-42" d="M399.9,219v12.99c-2.78,3.78-7.47,4.05-11.26,5.87-4.28,2.05-8.01,4.52-11.25,7.95-2.72,2.88-5.38,5.88-8.97,7.79-.88.47-1.79,1.14-2.09,2.07-2.24,6.79-8.03,11.28-11.17,17.53-2.21,4.39-7.03,5.33-11.2,4.67-4.9-.77-9.74-1.7-14.72-1.78-1.16-.02-2.29-.41-2.96-1.54-1.23-2.99-.18-5.94.42-8.79,2.65-12.47,3.97-25.18,6.71-37.63.38-1.71.16-3.77,2.43-4.46,7.48,1.79,14.89.37,22.32-.42,12.07-1.29,24.06-3.22,36.04-5.13,2-.32,3.98-.62,5.69.87Z"/>
  <path class="cls-28" d="M.07,83.06c8.9,1.19,16.58,5.32,24.24,9.7,5.25,3,10.64,6.02,16.35,7.86,6.44,2.07,10.54,7.31,16.34,10.23,8.85,4.46,16.2,11.53,25.21,15.85,2.75,1.32,3.57,4.86,6.83,5.35-.1,4.09-1.74,7.05-5.94,8.16-1.98-2.08-4.39-3.36-7.1-4.38-3.09-1.16-6.08-2.78-7.93-5.74-1.96-3.13-5.49-3.6-8.44-4.88-6.15-2.67-10.66-7.77-16.55-10.75-9.88-5-19.26-10.97-29.44-15.39-4.36-1.89-8.38-4.91-13.57-4.01v-11.99Z"/>
  <path class="cls-4" d="M132.02,399.91h-44.98c-1.38-2.03.2-3.47,1.12-4.93,6.8-10.84,13.49-21.75,20.23-32.63.44-.71.84-1.44,1.37-2.08,2.92-3.6,4.83-3.43,6.85.8,4.07,8.55,7.77,17.28,11.59,25.94,1.27,2.89,2.83,5.66,3.84,8.65.47,1.39,1.16,2.83-.02,4.24Z"/>
  <path class="cls-7" d="M81.86,66.04c-.94-7.36-6.48-8.51-12.45-10.24-12.08-3.48-23.78-8.33-35.86-11.83-11.08-3.21-21.95-7.32-33.47-8.9v-11.99c14.24,3.09,27.56,9.46,41.82,12.24,11.99,2.34,22.17,9.57,34.13,11.46,3.2.51,4.38,1.64,4.22,4.62,1.88,4.73,3.98,9.44,1.62,14.64Z"/>
  <path class="cls-38" d="M132.02,399.91c-5.23-14.44-12.25-28.08-18.56-43.14-9.13,14.94-18.43,28.63-26.42,43.14h-8c1.97-6.45,6.58-11.39,9.86-17.09,6.42-11.17,13.45-21.99,20.16-32.99,1.2-1.97,2.03-4.18,4.59-5.39,9.47,18.52,18.92,37,28.36,55.47h-10Z"/>
  <path class="cls-29" d="M399.9,219c-6.5.9-13.02,1.72-19.51,2.72-13.5,2.08-26.98,4.28-40.7,4.27-1.62,0-3.48.34-3.81-2.07-1.45-1.42-1.33-3.27-1.39-5.07.23-5.76,1.1-11.45,1.97-17.13.24-1.58.26-3.38,2.26-4,.61,4,.02,7.92-.74,11.85-.73,3.84.45,5.87,4.95,5.49,15.3-1.3,30.7-1.6,45.72-5.4,3.66-.92,7.49-1.12,11.25-1.66v11Z"/>
  <path class="cls-1" d="M326.9,274.97c5.39.33,10.79-.63,16.15,1.7,3.94,1.71,10.27-1.94,11.76-6.01.55-1.5,1.56-2.49,2.52-3.62,2.76-3.27,5.88-6.31,6.95-10.7.12-.47.3-1.08.65-1.32,7.27-4.84,12.13-12.6,19.85-16.77,4.77-2.58,10.06-4.2,15.11-6.26v5c-4.27,4.19-9.46,7.11-14.48,10.23-10.41,6.48-18.03,15.38-23.34,26.35-3.7,7.65-9.62,11.04-18.14,10.01-5.54-.67-11.38.72-16.57-2.42-.71-.43-1.49-.72-1.99-1.43-.52-1.92-1.45-3.97,1.53-4.77Z"/>
  <path class="cls-39" d="M399.9,258.98c-6.41,2.07-10.19,7.54-14.81,11.82-6.34,5.89-8.66,14.63-14.17,21.17-4.69,6.9-11.58,9.98-19.54,10.02-6.98.04-13.7-2.41-20.51-3.91-1.07-.24-2.36-.64-1.97-2.3,4.07-2.2,8.32-1.13,12.52-.67,5.51.61,10.96,1.96,16.58.54,2.32-.59,4.44-1.16,5.73-3.34,2.1-3.15,6.04-5,6.6-9.25,1.82-2.06,3.64-4.13,3.87-7.07,2.25-4.01,4.28-8.2,8.34-10.83,1.29-.84,2.08-2.1,2.49-3.59,4.31-4.19,8.64-8.36,14.86-9.6v7Z"/>
  <path class="cls-23" d="M325.92,279.97c5.88,1.73,11.96,1.74,18,2.32,8.08.77,14.16-2.74,17.21-10.1,2.52-6.09,6.63-11.36,11.23-16.13,7.89-8.19,17.56-13.86,27.53-19.07v6c-.74.71-1.63,1.08-2.64,1.19-4.21-.38-6.63,2.72-9.5,4.94-4.21,3.29-8.1,6.91-11.39,11.15-3.75,4.83-7.86,9.36-11.23,14.49-3.14,2.66-3.49,7.19-7.52,9.61-4.49,2.69-9.11,3.99-13.69,2.72-6.22-1.72-12.53-2.53-18.82-3.67-1.24-1.5-.7-2.59.81-3.45Z"/>
  <path class="cls-34" d="M399.9,86.06c-5.32,1.36-9.81,4.85-15.25,5.9.34-4.27-4.48-4.78-5.75-7.88,1.26-3.31,4.74-3.41,7.26-4.67,4.5-2.25,8.78-5.07,13.74-6.35v12.99Z"/>
  <path class="cls-20" d="M37.25,284.89c-1.18-.76-1.38-2.06-3.96-1.35-10.17,2.8-17.69,10.6-27.58,13.74-2.15.68-2.96,3.65-5.64,3.68v-6c2.52-3.51,6.43-5.19,9.98-7.23,5.71-3.27,11.36-6.7,17.54-9.1,2.52-.98,5.07-1.47,7.75-.84,1.94,2.01,3.69,4.08,1.9,7.09Z"/>
  <path class="cls-18" d="M364.9,273.96c-.05-2.75.95-5.1,3.73-5.68,3.71-.78,1.9-4.58,4.22-6.55,4.96-4.22,8.78-9.74,14.06-13.75,3.9-.52,6.79-3.08,10.02-4.96.99,0,1.99-.01,2.98-.02v4c-6,3.6-12.46,6.41-17.62,11.41-4.17,4.04-7.14,8.84-10.07,13.72-.13.96-.36,1.88-.89,2.71-2.6,2.08-4.69,4.56-6.06,7.63-1.48,1.55-3.01,3.03-4.3,4.77-1.7,2.29-3.95,3.53-6.9,2.11-1.09-1.82.26-3.08,1.42-3.67,4.95-2.51,6.77-7.4,9.41-11.69Z"/>
  <path class="cls-9" d="M.07,270.97c8.86-2.75,16.8-7.39,24.92-11.72,2.06-1.1,3.22-2.03,3.11-4.31,3.58,1.13,2.85,4.23,3.14,6.87-.32,3.27-2.89,4.34-5.43,5.08-7.71,2.27-14.15,7.04-21.25,10.51-1.49.73-2.79,1.96-4.49.56v-7Z"/>
  <path class="cls-49" d="M.07,291.96v-6c1.36-1.23,2.8-2.39,3.96-3.83,6.58-2.37,12.07-7.04,18.93-8.83,1.11-.29,1.53-1.7,2.66-2.11,2.82-.83,5.61-1.06,8.34.34.91.9,1.01,1.96.61,3.12-.79,1.27-2.13,1.62-3.42,1.54-2.91-.18-4.94,1.24-6.74,3.23-7.37,3.39-15.27,5.88-20.88,12.28-1.02,1.17-2.22,1.3-3.45.26Z"/>
  <path class="cls-46" d="M.07,277.97c3.28-.34,6.46-2.31,8.44-3.99,5.5-4.66,12.31-5.89,18.39-8.87,1.6-.79,3.04-1.14,3.21-3.13,3.1,1.01,3.02,3.32,2.41,5.86-2.57,2.75-6.98,1.87-9.48,4.79-7,1.22-12.06,6.5-18.52,8.88-1.54.57-2.78,1.88-4.45.47v-4Z"/>
  <path class="cls-22" d="M.07,291.96c3.52-1.23,5.81-4.21,8.65-6.36,4.65-3.51,10.01-4.89,15.3-6.65,2.84-2.37,6.34-2.81,9.79-3.38,1.05.49,1.65,1.2,1.19,2.43-12.35,2.79-22.6,9.81-33.07,16.4-.53.34-1.24.39-1.87.57,0-1,0-2,0-3Z"/>
  <path class="cls-15" d="M370.93,271.98c3.03-6.71,7.51-12.36,13.27-16.84,4.69-3.65,9.11-8.08,15.7-8.16v1c-.77,1.38-.93,3.21-2.76,3.83-9.76,3.3-15.61,11.12-21.63,18.73-1.33,1.09-2.49,2.76-4.57,1.43Z"/>
  <path class="cls-21" d="M374.9,269.97c5.43-8.19,11.37-15.87,21.33-18.89,1.84-.56,2.38-2.16,3.67-3.1v4c-4.65,3.35-9.8,6.01-13.98,10-3,3.16-6.76,5.57-9.12,9.36-.43.69-1.21,1.06-2.11.61-.41-.71-.32-1.37.21-1.99Z"/>
  <path class="cls-17" d="M.07,281.97c5.78-1.58,10.74-4.97,15.63-8.09,2.56-1.63,4.76-1.72,7.3-1.93.72-.53,1.43-.62,2.13.06-.12.97.03,2.47-1.03,2.58-7.53.79-12.59,7.36-19.97,8.41-1.36,1.02-2.72,1.05-4.07-.03v-1Z"/>
  <path class="cls-40" d="M.07,282.97c1.36.01,2.71.02,4.07.03-.26,2.5-1.88,3.12-4.07,2.97v-3Z"/>
  <path class="cls-13" d="M338.72,197.71c-.99,7.03-1.97,14.06-2.96,21.09-1.55.42-2.08-.84-2.5-1.78-1.77-3.94-4.69-7.07-7.13-10.54-7.61-13.67-19.18-24.17-28.98-36.09-8.07-9.81-18.35-17.38-26.86-26.74-20.24-18.2-40.5-36.38-62.07-53.02-10.52-8.11-21.35-15.81-31.89-23.91-2.06-2.43-6.42-3.17-5.68-7.67,11.17-3.71,21.41-9.95,33.14-12.08,30.02-5.44,57.42.57,81.97,18.88,4.12,3.08,8.2,6.22,12.3,9.33,4.56,2.35,7.35,6.61,10.86,10.1,4.39,4.76,8.27,9.91,11.81,15.32,1.88,3.46,4.62,6.53,5.06,10.67,9.41,19.98,13.14,41.23,13.66,63.11.18,7.76-.48,15.55-.75,23.32Z"/>
  <path class="cls-47" d="M307.85,85.74c-3.26-3.51-6.51-7.03-9.77-10.54,4.95-2.4,8.8-6.29,14-9.52-10.79-5.03-20.82-9.73-30.86-14.38-6.92-3.2-13.85-6.41-20.83-9.47-3.43-1.5-4.22-3.2-1.56-6.28,10.11-11.72,22.05-20.06,38-21.38,2.42-.2,4.04.32,5.2,2.71,4.93,10.13,10.03,20.17,15.06,30.25,1.78,3.56,3.58,7.11,5.31,10.7.61,1.26,1.43,2.17,2.73,2.74,17.93,7.83,35.86,15.68,53.79,23.52.84.53,1.61,1.36,2.52,1.54,3.91.75,4.63,2.97,3.23,6.34-8.2,16.79-22.62,25.42-39.8,30.54-2.77.83-4.3.33-5.46-2.4-1.61-3.77-3.59-7.38-5.41-11.06-2.98-3-3.73-7.22-5.82-10.7-3.81-9.01-7.92-17.89-11.98-27.27-3.81,4.59-4.24,10.7-8.33,14.67Z"/>
  <path class="cls-47" d="M170.67,59.06c.69,3.65,4.6,4.26,6.43,6.83-6.52,3.59-13.42,6.45-19.57,10.79-12.35,8.71-23.06,19.16-32.46,30.89-11.25,14.03-22.16,28.35-30.71,44.26-2.75,5.12-5.45,10.27-7.49,15.77-1.25,3.38-.12,4.65,3.07,4.98,3.14.33,6.22,1.07,9.4,1.26,3.11.18,6.34.23,9.01,2.28.12,1.05.37,2.18-1.36,1.93-13.13-1.47-26.26-2.92-39.51-3.02-4.28-.03-2.01-3.15-1.28-4.61,4.36-8.72,8.45-17.61,14.34-25.47,1.1-1.47,2.2-2.91,2.56-4.76,2.72-2.18,4.29-5.2,5.94-8.16,4.34-5.51,8.66-11.04,13.03-16.53,1.03-1.29,2.19-2.47,1.93-4.31,2.86-3.27,5.42-6.81,8.51-9.88,13.02-12.18,25.78-24.69,41.09-34.11,1.83-1.13,3.72-2.16,5.65-3.1,3.15-1.68,6.38-3.24,8.78-6.02,1.04-.14,1.86.35,2.63.96Z"/>
  <path class="cls-32" d="M112.99,102.1c-3.08,2.95-4.54,7.49-8.98,9.1-8.85-14.33-16.88-29.07-22.15-45.16-.54-4.88-1.08-9.76-1.62-14.64,3.77-18.05,16.4-20.63,32.97-17.86,20.26,3.38,38.32,12.4,54.83,24.55.69,1.15.68,2.06-.69,2.76-2.47,1.26-4.9,2.62-7.34,3.94-10.64-7.12-21.61-13.61-33.46-18.55-5.88-2.45-11.95-4.24-18.24-4.75-11.43-.94-18.11,6.55-16.76,17.99.84,7.06,3.25,13.54,6.61,19.71,4.36,8.01,8.78,16,14.84,22.92Z"/>
  <path class="cls-47" d="M35.02,277.99c-.33-.67-.67-1.34-1-2.01-.34-.25-.45-.48-.31-.7.13-.21.25-.32.38-.32-.08-.98-.15-1.95-.23-2.93-1.3-1.05-2.13-2.3-1.77-4.06-.19-2.15-.49-4.26-1.97-5.99.02-2.54-.48-4.93-2.01-7.04-3.25-11.13-6.37-22.29-9.84-33.35-1.06-3.37-1.26-4.29,2.97-3.88,17.49,1.71,35.03,2.91,52.54,4.42,17.34,1.49,34.67,3.12,52,4.69.5.05,1,.07,1.49.11,6.89.49,7.21-.14,6.56-7-1.16-12.14-3.46-23.93-8.85-34.98-.95-1.94-1.75-4-3.89-5,1.04-3.22,3.9-1.87,6.01-2.39,20.7,2.06,41.27,5.25,61.91,7.79,3.79.47,5.96,2.19,6.47,6.24,1.72,13.55,2.31,27.19,2.91,40.81.32,7.32-1.3,8.28-8.6,7.6-20.71-1.93-41.43-3.81-62.13-5.8-18.71-1.8-37.46-3.27-56.16-5.25-11.91-1.26-23.84-2.37-35.78-3.39-6.35-.54-6.8.25-4.83,6.19,8.77,26.39,18.16,52.56,26.79,78.99.65,1.99,1.82,4.03.47,6.21-3.59-.12-7.18-.24-10.78-.37-3.37-10.57-6.74-21.14-10.11-31.7.25-2.62-1.61-4.56-2.23-6.9Z"/>
  <path class="cls-27" d="M127.14,178.92c-1.99.55-4.28-.72-6.07,1.02-4.72-.39-9.47-.62-14.07-1.9.73-.39.98-1.04.99-1.82,4.45-2.97,8.91-.25,13.33.09,2.06.16,4.85-.4,5.81,2.6Z"/>
  <path class="cls-47" d="M326.97,205.97c3.96,3.57,5.78,8.61,8.79,12.83.04,1.71.08,3.41.12,5.12-1.56,8.23-3.39,16.41-4.62,24.69-1.31,8.81-3.8,17.42-4.36,26.36-1.51,1.44-.81,3.3-.98,5-.28,1-.56,1.99-.84,2.99,1.06,1.6.07,3.24.12,4.86-.04.71-.14,1.4-.28,2.1-.24,1.13-.63,2.23-.7,3.4-.08.94-.16,1.88-.34,2.81-.3,1.44-.86,2.76-1.86,3.85-3.06,15.34-6.12,30.69-9.21,46.03-.19.95-.61,1.85-.92,2.77-4.6-.6-9.2-1.2-13.79-1.8,6.84-17.05,10.18-35.05,13.97-52.9,5.17-24.37,9.06-48.96,12.05-73.7.59-4.85-.34-10.05,2.86-14.4Z"/>
  <path class="cls-45" d="M322.01,299.97c-.33-1.48.11-2.79.9-4.02,2.01-1.47,4.01-1.74,6.02,0,9.12,1.99,17.93,6.06,27.65,4.02,5.64-1.18,9.82-4.89,14.34-8.02-.46,5.47-8.21,12.21-14.62,11.89-8.37-.42-16.79-.7-25.07-2.28-3.06-.58-6.15-1.07-9.22-1.6Z"/>
  <path class="cls-25" d="M329.08,97.99c2.38,3.35,3.57,7.23,4.89,11.05-3.31-1.41-6.29-1.62-8.16,2.24-1.95-3.42-3.91-6.85-5.86-10.27,1.78-3.63,4.09-4.39,9.13-3.02Z"/>
  <path class="cls-37" d="M127.14,178.92c-6.3-1.48-12.67-2.43-19.14-2.69-6.74-.93-13.47-2.01-20.23-2.74-3.62-.39-3.8-1.62-2.62-4.81,5.62-15.09,14.08-28.55,23.41-41.49,11.97-16.6,24.51-32.74,40.6-45.72,7.15-5.77,14.81-10.66,23.13-14.56,1.56-.73,3.12-1.1,4.81-1.02,31.9,22.92,62.3,47.67,91.11,74.38.96.89,1.81,1.92,2.71,2.88,2.8,5.49,3.21,11.49,3.45,17.45.36,8.97.19,17.96-1.01,26.88-1.58,11.7-1.17,23.59-2.93,35.25-2.92,19.39-5.94,38.77-10.92,57.78-2.19,8.36-4.4,16.73-6.17,25.18-2.2,10.5-6.08,20.36-10.18,30.19-1.33,3.19-3.32,4.44-6.61,3.07-2.87-1.2-5.97.13-8.84-.87-18.31-2.19-36.62-4.35-54.92-6.57-26.39-3.21-52.8-6.36-79.17-9.75-11.83-1.52-23.76-2.38-35.47-4.78-8.69-25.64-17.38-51.28-26.07-76.92-1.39-4.09-2.69-8.22-4.23-12.26-1.14-3.01-.67-4.32,2.87-3.99,9.43.87,18.88,1.52,28.32,2.38,20.03,1.84,40.05,3.75,60.07,5.64,24.48,2.31,48.97,4.6,73.44,7.01,3.45.34,4.76-.46,4.53-4.23-.88-14.59-1.33-29.21-3.09-43.75-.29-2.36-1.05-3.52-3.56-3.84-18.13-2.29-36.25-4.71-54.37-7.07-2.96-.39-5.93-.68-8.9-1.02Z"/>
  <path class="cls-8" d="M227.7,338.07c2.33-.04,4.91-.77,6.93,0,5.43,2.07,6.65-1.26,8.28-5.16,9.37-22.4,13.71-46.19,18.84-69.69,4.12-18.84,7.79-37.8,8.43-57.29.48-14.85,3.14-29.61,2.86-44.57-.11-6.18-2.35-12.04-2.13-18.21,18.59,15.69,34.19,34.22,49.88,52.66,2.54,2.98,4.14,6.76,6.18,10.16-1.97,20.14-4.54,40.2-8.07,60.13-4.11,23.18-8.74,46.26-15.04,68.97-.8,2.87-1.92,5.66-2.62,8.55-.45,1.84-1.29,2.99-3.14,3.35-8.69-1.07-17.38-2.12-26.06-3.22-14.78-1.87-29.56-3.78-44.34-5.68Z"/>
  <path class="cls-31" d="M328.93,295.96c-2.01,0-4.01,0-6.02,0,.07-1,.14-2,.2-3,1-2.2,3.04-2.49,5.02-2.35,6,.42,12.15.06,17.74,3.06,1.93,1.04,4.17.81,6.3.86,3.1.18,6.16.44,8.56-2.27.88-1,2.23-1.31,3.6-.78.2.17.4.34.6.51-.3,3.9-3.31,4.24-6.24,5.03-5.4,1.46-10.8.63-16.02-.26-4.62-.79-9.16-.58-13.73-.77Z"/>
  <path class="cls-31" d="M374.92,271.98c3.64-3.36,5.53-8.64,10.99-10-.04.97.18,2.18-.76,2.69-4.75,2.58-6.88,7.49-10.22,11.31-.16-.15-.32-.29-.48-.44-.45-.81-.49-1.66-.28-2.54.15-.42.4-.76.76-1.03Z"/>
  <path class="cls-31" d="M370.93,282.98c.97,4.98-3.26,6.49-6,8.99,0,0-.03-.03-.03-.03-1.45-4.93,2.13-6.95,5.32-9.2.24.08.47.16.71.23Z"/>
  <path class="cls-31" d="M374.93,275.99c.42,3.33-.4,5.96-4,6.99,0,0-.03-.02-.03-.02-.8-.72-1.01-1.65-.94-2.68.06-.49.19-.96.39-1.42,1.18-1.48,2.08-3.43,4.55-2.91l.03.03Z"/>
  <path class="cls-41" d="M324.11,287.9c-.44-1.8.66-3.29.97-4.94,5.54.3,10.88-.16,16.44,2.38,6.31,2.88,12.97.25,18.23-4.1,2.19-1.81,1.2-6.36,5.15-7.28-.24,5.35-3.98,8.51-7.53,11.69-1.2,1.07-2.71,1.77-3.46,3.31-1.55,1.64-3.62,1.5-5.55,1.41-6.38-.29-12.84-.21-18.92-2.61-1.86-.73-3.54.53-5.32.14Z"/>
  <path class="cls-2" d="M396.92,243.01c-2.05,4.26-5.7,5.29-10.02,4.96,3.24-1.85,5.42-5.86,10.02-4.96Z"/>
  <path class="cls-3" d="M324.11,287.9c1.28-1.92,3.25-2.49,5.18-1.75,7.99,3.02,16.3,2.85,24.61,2.81,3.07.24,5.63-.5,6.85-3.66.75-1.93,2.55-2.48,4.12-3.35.61.51.81,1.19.81,1.95-.11,1.26-.62,2.36-1.32,3.4-2.08,1.72-3.89,3.74-5.99,5.46-.5.23-1.02.37-1.57.45-7.87.52-15.59.02-23.16-2.53-3.08-1.04-6.55.41-9.74-.73.06-.68.13-1.36.19-2.04Z"/>
  <path class="cls-43" d="M364.92,283.97c-.01-.68-.02-1.35-.03-2.03.41-3.68,2.14-6.24,5.97-7.03.18.18.36.35.54.53.64,1.28.3,2.44-.48,3.53-.01.33-.02.65-.03.98-1.55,1.99-2.62,4.71-5.97,4.02Z"/>
  <path class="cls-43" d="M374.92,271.98c-.02.33-.02.65-.03.98-1.02,1.25-1.55,3.45-3.94,2.05,0,0-.1-.1-.1-.1.02-.98.05-1.96.07-2.94,1.73.13,2.6-1.43,3.97-2,0,.67.02,1.34.02,2.01Z"/>
  <path class="cls-12" d="M32.08,267.96c1.28,1.05,1.1,2.74,1.77,4.06-2.91,0-5.81-.01-8.71-.02-.71-.02-1.42-.04-2.12-.06,1.98-3.7,5.78-3.25,9.06-3.99Z"/>
  <path class="cls-50" d="M34.08,274.96c-.02.34-.04.68-.06,1.02-3.15,1.58-6.57,2.26-9.98,2.97,1.69-5.52,6.3-3.67,10.05-3.99Z"/>
  <path class="cls-33" d="M274.96,137.02c-15.38-14.66-31.86-28.01-48.39-41.33-12.79-10.3-25.97-20.07-39.08-29.93-1.03-.78-2.49-1.43-2.11-3.05.31-1.29,1.73-1.32,2.75-1.83,14.73-7.38,30.51-9.31,46.55-7.59,12.78,1.37,24.64,6.24,35.23,13.8,3.6,6.53,4.7,13.74,5.65,20.98,1.91,14.46,3.74,28.94,2.8,43.57-.14,2.11,1.31,5.9-3.41,5.38Z"/>
  <path class="cls-51" d="M274.96,137.02c2.49-.34,1.94-2.28,1.96-3.84.29-20.82-.77-41.49-6.62-61.66-.4-1.4-.27-2.95-.39-4.42,12.36,4.86,21.76,13.49,30.31,23.37,8.31,9.61,15.43,19.87,19.84,31.87,3.27,8.91,4.81,18.18,5.84,27.55,1.44,13.17,2.32,26.38,2,39.64-.04,1.76.69,4.17-1.4,4.9-2.48.86-2.56-1.96-3.53-3.31-6.58-9.13-13.29-18.15-20.9-26.46-3.13-3.42-6.09-7-9.35-10.29-5.83-5.87-11.83-11.57-17.76-17.34Z"/>
  <path class="cls-35" d="M329.08,97.99c-3,1.13-6.8-.16-9.13,3.02-4.03-5.09-8.07-10.18-12.1-15.27,2.45-5.78,4.91-11.56,7.99-18.82,4.78,11.23,9.01,21.15,13.24,31.08Z"/>
  <path class="cls-52" d="M326.67,73.19c-.91-1.73-1.82-3.46-2.91-5.54,3.12-.69,5.24.9,7.37,1.75,14.34,5.77,28.57,11.83,42.94,17.54,3.14,1.25,3.16,2.66,1.85,5.21-4.42,8.58-11.66,13.9-20.17,17.81-.89.41-1.78.8-2.68,1.2-2.53.95-3.67-.79-4.67-2.54-6.84-12.06-14.85-23.39-21.73-35.43Z"/>
  <path class="cls-52" d="M313.89,56.08c.61,1.14,1.59,2.14,1.37,3.89-2.95.04-5.24-1.83-7.72-2.88-12.19-5.17-24.25-10.63-36.45-15.77-3.29-1.38-3.36-2.89-1.51-5.47,4.56-6.35,10.65-10.24,18.27-11.84,3.36-1.4,4.88,1.04,6.45,3.18,6.88,9.39,13.58,18.92,19.6,28.9Z"/>
  <path class="cls-14" d="M326.67,73.19c7.66,8.45,12.36,18.91,18.97,28.05,2.41,3.33,2.59,8.4,7.42,9.92-9.88,3.93-7.77,4.08-11.58-4.49-4.96-11.15-10.75-21.94-14.81-33.48Z"/>
  <path class="cls-14" d="M313.89,56.08c-7.24-7.98-12.38-17.5-18.99-25.92-1.91-2.44-2.83-6.28-7.06-6.15,9.15-2.89,9.18-2.9,13.17,5.31,4.33,8.9,8.59,17.84,12.87,26.77Z"/>
  <path class="cls-16" d="M112.99,102.1c-1.9-.05-3.12-1.33-3.99-2.69-7.66-11.96-15.92-23.53-18.5-38.1-2.5-14.14,7.03-23.94,21.13-20.85,14.76,3.23,28.17,9.49,40.51,18.11,2.74,1.91,6.93,2.02,7.86,6.23-17.78,9.77-32.01,24.02-47.01,37.31Z"/>
  <path class="cls-26" d="M192.01,224.17c0,.83-.12,1.69.02,2.49.83,4.66-1.35,5.73-5.6,5.3-14.34-1.45-28.7-2.75-43.06-3.93-2.63-.21-3.28-1.19-3.42-3.65-.76-13.63-2.68-27.06-8.09-39.74-1.2-2.81-.85-3.39,2.38-2.81,16.63,2.95,33.3,5.64,49.96,8.42,2.98.5,4.94,1.52,5.2,5.21.69,9.58,1.88,19.12,2.87,28.68-.09,0-.17.02-.26.03Z"/>
  <path class="cls-44" d="M323.92,289.94c4.48-1.32,8.84-2.16,12.97,1.23,1.91,1.56,4.46.71,6.72.76,4.77.11,9.54.04,14.31.04-.25,3.1-3.56,2.37-5,3.98-6.53,1.2-11.75-3.9-18.18-3.66-3.88.14-7.82-1.06-11.61.67.27-1,.54-2.01.81-3.01Z"/>
  <path class="cls-6" d="M180.63,125.42c.73-3.16-.11-5.91-.55-8.67-.98-6.15-2.32-6.98-8.11-5.27-.08-.3-.3-.66-.21-.88,1.59-3.6,2.75-8.28,7.61-7.96,4.61.3,5.55,5.02,6.29,8.58,3.57,17.12,2.65,33.95-4.55,50.12-1.18,2.65-2.51,5.82-6.13,5.74-3.86-.09-5.07-3.34-6.09-6.35-3.6-10.59-2.83-21.32-.09-31.86,1.79-6.92,4.15-7.41,11.83-3.44Z"/>
  <path class="cls-6" d="M132.5,109c2.51-4.12,3.34-9.24,8.51-8.88,4.72.33,5.23,5.2,6,8.75,3.6,16.65,2.3,33.01-3.89,48.91-.71,1.82-1.8,3.59-3.09,5.07-2.11,2.43-4.49,2.66-6.69-.08-2.65-3.3-4.72-6.89-5.02-11.19-.52-7.64-.69-15.27,1.11-22.81,2.13-8.96,4.57-10.19,12.54-6.11,1.46-10.91-1.44-15.69-9.47-13.66Z"/>
  <path class="cls-21" d="M352.91,295.95c.78-2.44,3.41-2.55,5-3.98.33-.02.65-.03.98-.02,1.53-1.8,3.74-2.93,4.99-5.01.34-.99.68-1.98,1.03-2.97,1.99-1.34,3.98-2.68,5.97-4.02,0,1,0,2,0,3-2.78,2.47-5.55,4.96-6.01,8.99-1.12.04-2.53-.16-3.14.86-2.12,3.56-5.48,3.3-8.84,3.15Z"/>
  <path class="cls-21" d="M370.95,275.01c1.7.06,2.58-1.46,3.94-2.05,0,1,0,2,0,3-1.33,1-2.65,2.01-3.98,3.01.01-1.32.02-2.64.04-3.96Z"/>
  <path class="cls-44" d="M363.89,286.94c-.5,2.83-2.17,4.49-4.99,5.01.27-3.06,2.85-3.82,4.99-5.01Z"/>
  <path class="cls-48" d="M171.01,133.65c.02-.27-.07-1.46.23-2.54.44-1.56.93-3.28,3.17-3.07,1.86.17,2.5,1.62,2.65,3.07.19,1.94.24,3.98-.17,5.87-.39,1.83-.96,4.27-3.59,3.85-2.2-.35-2.32-2.45-2.3-4.32,0-.66,0-1.31,0-2.85Z"/>
  <path class="cls-24" d="M138.98,130.54c-.1,1.33-.07,2.17-.24,2.96-.48,2.24-.75,5.1-3.86,4.75-2.73-.31-2.6-2.95-2.61-5.12,0-.66-.03-1.32,0-1.98.13-2.49.03-5.5,3.37-5.63,3.75-.14,2.76,3.3,3.34,5.01Z"/>
</svg>